<?xml version="1.0" encoding="utf-8"?>
<!-- Generator: Adobe Illustrator 21.1.0, SVG Export Plug-In . SVG Version: 6.00 Build 0)  -->
<svg version="1.1" id="Layer_1" xmlns="http://www.w3.org/2000/svg" xmlns:xlink="http://www.w3.org/1999/xlink" x="0px" y="0px"
	 viewBox="0 0 365.7 214" style="enable-background:new 0 0 365.7 214;" xml:space="preserve">
<style type="text/css">
	.st0{fill:#371EE1;}
	.st1{fill:none;stroke:#FFFFFF;stroke-width:0.541;stroke-miterlimit:10;}
	.st2{clip-path:url(#SVGID_2_);fill:#FFFFFF;}
	.st3{clip-path:url(#SVGID_4_);fill:#FFFFFF;}
	.st4{clip-path:url(#SVGID_6_);fill:#FFFFFF;}
	.st5{clip-path:url(#SVGID_8_);fill:#FFFFFF;}
	.st6{clip-path:url(#SVGID_10_);fill:#FFFFFF;}
	.st7{clip-path:url(#SVGID_12_);fill:#FFFFFF;}
	.st8{clip-path:url(#SVGID_14_);fill:#FFFFFF;}
	.st9{clip-path:url(#SVGID_16_);fill:#FFFFFF;}
	.st10{clip-path:url(#SVGID_18_);fill:#FFFFFF;}
	.st11{clip-path:url(#SVGID_20_);fill:#FFFFFF;}
	.st12{clip-path:url(#SVGID_22_);fill:#FFFFFF;}
	.st13{clip-path:url(#SVGID_24_);fill:#FFFFFF;}
	.st14{clip-path:url(#SVGID_26_);fill:#FFFFFF;}
	.st15{clip-path:url(#SVGID_28_);fill:#FFFFFF;}
	.st16{clip-path:url(#SVGID_30_);fill:#FFFFFF;}
	.st17{clip-path:url(#SVGID_32_);fill:#FFFFFF;}
	.st18{clip-path:url(#SVGID_34_);fill:#FFFFFF;}
	.st19{clip-path:url(#SVGID_36_);fill:#FFFFFF;}
	.st20{clip-path:url(#SVGID_38_);fill:#FFFFFF;}
	.st21{clip-path:url(#SVGID_40_);fill:#FFFFFF;}
	.st22{clip-path:url(#SVGID_42_);fill:#FFFFFF;}
	.st23{clip-path:url(#SVGID_44_);fill:#FFFFFF;}
	.st24{clip-path:url(#SVGID_46_);fill:#FFFFFF;}
	.st25{clip-path:url(#SVGID_48_);fill:#FFFFFF;}
	.st26{fill:#FFFFFF;}
	.st27{fill:url(#SVGID_49_);}
	.st28{fill:url(#SVGID_50_);}
	.st29{fill:url(#SVGID_51_);}
	.st30{fill:url(#SVGID_52_);}
</style>
<rect x="172.2" y="65.1" class="st0" width="191.8" height="146.3"/>
<line class="st1" x1="228.5" y1="123" x2="337.5" y2="123"/>
<line class="st1" x1="185.4" y1="67.4" x2="353" y2="67.4"/>
<g>
	<g>
		<g>
			<defs>
				<rect id="SVGID_1_" x="187.2" y="84.6" width="150.2" height="33.3"/>
			</defs>
			<clipPath id="SVGID_2_">
				<use xlink:href="#SVGID_1_"  style="overflow:visible;"/>
			</clipPath>
			<path class="st2" d="M228.2,92.4c0-2.4,1.9-4.2,4.2-4.2c1.8,0,3.2,1,3.8,2.5l-1.6,0.7c-0.4-0.9-1.2-1.5-2.3-1.5
				c-1.4,0-2.5,1.1-2.5,2.6c0,1.4,1.1,2.6,2.6,2.6c1.1,0,1.9-0.7,2.3-1.6l1.6,0.7c-0.6,1.5-2,2.5-3.9,2.5
				C230.1,96.6,228.2,94.7,228.2,92.4"/>
		</g>
	</g>
	<g>
		<g>
			<defs>
				<rect id="SVGID_3_" x="187.2" y="84.6" width="150.2" height="33.3"/>
			</defs>
			<clipPath id="SVGID_4_">
				<use xlink:href="#SVGID_3_"  style="overflow:visible;"/>
			</clipPath>
			<path class="st3" d="M236.9,92.4c0-2.6,1.9-4.2,4-4.2c1.1,0,2.1,0.5,2.7,1.2v-1.1h1.7v8.1h-1.7v-1.1c-0.6,0.8-1.6,1.3-2.7,1.3
				C238.9,96.6,236.9,95,236.9,92.4 M243.7,92.4c0-1.4-1.1-2.6-2.6-2.6c-1.4,0-2.6,1.1-2.6,2.6s1.1,2.6,2.6,2.6
				C242.6,95,243.7,93.9,243.7,92.4"/>
		</g>
	</g>
	<g>
		<g>
			<defs>
				<rect id="SVGID_5_" x="187.2" y="84.6" width="150.2" height="33.3"/>
			</defs>
			<clipPath id="SVGID_6_">
				<use xlink:href="#SVGID_5_"  style="overflow:visible;"/>
			</clipPath>
			<path class="st4" d="M246.9,88.4h1.7v1.3c0.4-0.8,1.2-1.3,2.4-1.3h0.8V90h-1.1c-1.5,0-2.1,0.7-2.1,2.4v4h-1.7L246.9,88.4
				L246.9,88.4z"/>
		</g>
	</g>
	<g>
		<g>
			<defs>
				<rect id="SVGID_7_" x="187.2" y="84.6" width="150.2" height="33.3"/>
			</defs>
			<clipPath id="SVGID_8_">
				<use xlink:href="#SVGID_7_"  style="overflow:visible;"/>
			</clipPath>
			<path class="st5" d="M252.2,92.4c0-2.6,1.9-4.2,4-4.2c1.1,0,2.1,0.5,2.7,1.3v-1.1h1.7v7.9c0,2.4-1.5,4.1-4.1,4.1
				c-2,0-3.4-1-4-2.3l1.6-0.8c0.4,0.9,1.2,1.5,2.4,1.5c1.5,0,2.4-1.1,2.4-2.5v-1c-0.6,0.8-1.6,1.3-2.7,1.3
				C254.2,96.6,252.2,95,252.2,92.4 M259,92.4c0-1.4-1.1-2.6-2.6-2.6c-1.4,0-2.6,1.1-2.6,2.6s1.1,2.6,2.6,2.6S259,93.9,259,92.4"/>
		</g>
	</g>
	<g>
		<g>
			<defs>
				<rect id="SVGID_9_" x="187.2" y="84.6" width="150.2" height="33.3"/>
			</defs>
			<clipPath id="SVGID_10_">
				<use xlink:href="#SVGID_9_"  style="overflow:visible;"/>
			</clipPath>
			<path class="st6" d="M261.8,92.4c0-2.4,1.9-4.2,4.2-4.2c2.3,0,4.2,1.8,4.2,4.2c0,2.3-1.9,4.2-4.2,4.2
				C263.6,96.6,261.8,94.8,261.8,92.4 M268.5,92.4c0-1.4-1.1-2.6-2.5-2.6s-2.5,1.2-2.5,2.6s1.1,2.6,2.5,2.6S268.5,93.8,268.5,92.4"
				/>
		</g>
	</g>
	<g>
		<g>
			<defs>
				<rect id="SVGID_11_" x="187.2" y="84.6" width="150.2" height="33.3"/>
			</defs>
			<clipPath id="SVGID_12_">
				<use xlink:href="#SVGID_11_"  style="overflow:visible;"/>
			</clipPath>
			<polygon class="st7" points="270.4,88.4 272.2,88.4 274,94.1 276.1,88.4 277.8,88.4 279.9,94.1 281.8,88.4 283.6,88.4 
				280.8,96.5 279.1,96.5 277,90.7 274.8,96.5 273.1,96.5 			"/>
		</g>
	</g>
	<g>
		<g>
			<defs>
				<rect id="SVGID_13_" x="187.2" y="84.6" width="150.2" height="33.3"/>
			</defs>
			<clipPath id="SVGID_14_">
				<use xlink:href="#SVGID_13_"  style="overflow:visible;"/>
			</clipPath>
			<path class="st8" d="M285.3,84.8c0.7,0,1.2,0.5,1.2,1.2s-0.5,1.2-1.2,1.2s-1.2-0.5-1.2-1.2S284.6,84.8,285.3,84.8 M284.4,88.4
				h1.7v8.1h-1.7V88.4z"/>
		</g>
	</g>
	<g>
		<g>
			<defs>
				<rect id="SVGID_15_" x="187.2" y="84.6" width="150.2" height="33.3"/>
			</defs>
			<clipPath id="SVGID_16_">
				<use xlink:href="#SVGID_15_"  style="overflow:visible;"/>
			</clipPath>
			<path class="st9" d="M287,94.8l1.6-0.8c0.5,0.8,1.2,1.2,2.1,1.2c1,0,1.5-0.5,1.5-1.1c0-0.7-1-0.8-2-1c-1.4-0.3-2.8-0.7-2.8-2.4
				c0-1.3,1.2-2.5,3.2-2.4c1.6,0,2.6,0.6,3.3,1.6l-1.5,0.8c-0.4-0.6-1-0.9-1.8-0.9c-1,0-1.4,0.4-1.4,1s0.7,0.7,1.9,1
				c1.4,0.3,2.9,0.7,2.9,2.4c0,1.2-1.1,2.6-3.3,2.6C288.9,96.6,287.7,96,287,94.8"/>
		</g>
	</g>
	<g>
		<g>
			<defs>
				<rect id="SVGID_17_" x="187.2" y="84.6" width="150.2" height="33.3"/>
			</defs>
			<clipPath id="SVGID_18_">
				<use xlink:href="#SVGID_17_"  style="overflow:visible;"/>
			</clipPath>
			<path class="st10" d="M294.6,92.4c0-2.4,1.8-4.2,4.2-4.2c2.4,0,4.2,1.7,4.2,4.1V93h-6.7c0.2,1.2,1.2,2.1,2.6,2.1
				c1.1,0,1.9-0.6,2.4-1.5l1.4,0.8c-0.7,1.3-2,2.2-3.8,2.2C296.3,96.6,294.6,94.8,294.6,92.4 M296.3,91.5h4.9
				c-0.3-1.2-1.1-1.8-2.4-1.8C297.6,89.7,296.7,90.5,296.3,91.5"/>
		</g>
	</g>
	<g>
		<g>
			<defs>
				<rect id="SVGID_19_" x="187.2" y="84.6" width="150.2" height="33.3"/>
			</defs>
			<clipPath id="SVGID_20_">
				<use xlink:href="#SVGID_19_"  style="overflow:visible;"/>
			</clipPath>
			<path class="st11" d="M227.8,112.8l0.7-0.6c0.6,0.8,1.5,1.3,2.6,1.3c1.4,0,2.1-0.7,2.1-1.6c0-1-1.1-1.2-2.3-1.5
				c-1.3-0.3-2.7-0.7-2.7-2.2c0-1.2,1.1-2.2,2.8-2.2c1.2,0,2.3,0.5,2.9,1.2l-0.7,0.6c-0.5-0.6-1.3-1-2.2-1c-1.2,0-1.9,0.6-1.9,1.4
				c0,1,1.1,1.2,2.3,1.5c1.3,0.3,2.7,0.7,2.7,2.3c0,1.1-1,2.4-3.1,2.4C229.7,114.3,228.5,113.8,227.8,112.8"/>
		</g>
	</g>
	<g>
		<g>
			<defs>
				<rect id="SVGID_21_" x="187.2" y="84.6" width="150.2" height="33.3"/>
			</defs>
			<clipPath id="SVGID_22_">
				<use xlink:href="#SVGID_21_"  style="overflow:visible;"/>
			</clipPath>
			<path class="st12" d="M235.2,110.2c0-2.4,1.8-4.3,4.2-4.3s4.1,1.7,4.1,4.1v0.4H236c0.1,1.8,1.5,3.1,3.4,3.1c1.5,0,2.5-0.8,3.1-2
				l0.8,0.4c-0.7,1.6-2,2.5-3.8,2.5C236.8,114.3,235.2,112.5,235.2,110.2 M236.1,109.6h6.5c-0.2-1.7-1.4-2.8-3.2-2.8
				C237.7,106.8,236.4,108,236.1,109.6"/>
		</g>
	</g>
	<g>
		<g>
			<defs>
				<rect id="SVGID_23_" x="187.2" y="84.6" width="150.2" height="33.3"/>
			</defs>
			<clipPath id="SVGID_24_">
				<use xlink:href="#SVGID_23_"  style="overflow:visible;"/>
			</clipPath>
			<path class="st13" d="M245.1,106.1h0.9v1.5c0.5-1,1.5-1.5,2.9-1.5h0.5v0.9h-0.5c-2,0-2.9,1-2.9,3v4.2h-0.9V106.1z"/>
		</g>
	</g>
	<g>
		<g>
			<defs>
				<rect id="SVGID_25_" x="187.2" y="84.6" width="150.2" height="33.3"/>
			</defs>
			<clipPath id="SVGID_26_">
				<use xlink:href="#SVGID_25_"  style="overflow:visible;"/>
			</clipPath>
			<polygon class="st14" points="250.4,106.1 251.4,106.1 254,113 256.7,106.1 257.6,106.1 254.4,114.2 253.5,114.2 			"/>
		</g>
	</g>
	<g>
		<g>
			<defs>
				<rect id="SVGID_27_" x="187.2" y="84.6" width="150.2" height="33.3"/>
			</defs>
			<clipPath id="SVGID_28_">
				<use xlink:href="#SVGID_27_"  style="overflow:visible;"/>
			</clipPath>
			<path class="st15" d="M259.2,102.7c0.5,0,0.8,0.4,0.8,0.8c0,0.5-0.4,0.8-0.8,0.8c-0.5,0-0.8-0.4-0.8-0.8
				C258.4,103.1,258.8,102.7,259.2,102.7 M258.8,106.1h0.9v8.1h-0.9V106.1z"/>
		</g>
	</g>
	<g>
		<g>
			<defs>
				<rect id="SVGID_29_" x="187.2" y="84.6" width="150.2" height="33.3"/>
			</defs>
			<clipPath id="SVGID_30_">
				<use xlink:href="#SVGID_29_"  style="overflow:visible;"/>
			</clipPath>
			<path class="st16" d="M261.2,110.1c0-2.4,1.9-4.2,4.2-4.2c1.8,0,3.2,1,3.8,2.5l-0.8,0.4c-0.5-1.2-1.6-2-3-2
				c-1.9,0-3.3,1.5-3.3,3.4s1.4,3.4,3.3,3.4c1.4,0,2.5-0.9,3-2.1l0.9,0.4c-0.6,1.5-2,2.5-3.8,2.5C263,114.3,261.2,112.5,261.2,110.1
				"/>
		</g>
	</g>
	<g>
		<g>
			<defs>
				<rect id="SVGID_31_" x="187.2" y="84.6" width="150.2" height="33.3"/>
			</defs>
			<clipPath id="SVGID_32_">
				<use xlink:href="#SVGID_31_"  style="overflow:visible;"/>
			</clipPath>
			<path class="st17" d="M270.3,110.2c0-2.4,1.8-4.3,4.2-4.3c2.4,0,4.1,1.7,4.1,4.1v0.4h-7.5c0.1,1.8,1.5,3.1,3.4,3.1
				c1.5,0,2.5-0.8,3.1-2l0.8,0.4c-0.7,1.6-2,2.5-3.8,2.5C271.9,114.3,270.3,112.5,270.3,110.2 M271.2,109.6h6.5
				c-0.2-1.7-1.4-2.8-3.2-2.8C272.8,106.8,271.4,108,271.2,109.6"/>
		</g>
	</g>
	<g>
		<g>
			<defs>
				<rect id="SVGID_33_" x="187.2" y="84.6" width="150.2" height="33.3"/>
			</defs>
			<clipPath id="SVGID_34_">
				<use xlink:href="#SVGID_33_"  style="overflow:visible;"/>
			</clipPath>
			<path class="st18" d="M284.4,112.6v5.3h-0.9v-11.8h0.9v1.7c0.6-1.2,2-1.9,3.3-1.9c2.4,0,4.2,1.9,4.2,4.2c0,2.3-1.8,4.2-4.2,4.2
				C286.4,114.3,285,113.7,284.4,112.6 M290.9,110.1c0-1.9-1.4-3.4-3.3-3.4s-3.3,1.5-3.3,3.4s1.4,3.4,3.3,3.4S290.9,112,290.9,110.1
				"/>
		</g>
	</g>
	<g>
		<g>
			<defs>
				<rect id="SVGID_35_" x="187.2" y="84.6" width="150.2" height="33.3"/>
			</defs>
			<clipPath id="SVGID_36_">
				<use xlink:href="#SVGID_35_"  style="overflow:visible;"/>
			</clipPath>
			<path class="st19" d="M293,110.1c0-2.3,1.8-4.2,4.2-4.2c1.2,0,2.6,0.7,3.3,1.8V106h0.9v8.1h-0.9v-1.7c-0.7,1.2-2,1.8-3.3,1.8
				C294.8,114.3,293,112.4,293,110.1 M300.5,110.1c0-1.8-1.4-3.4-3.3-3.4c-1.8,0-3.3,1.5-3.3,3.4s1.5,3.4,3.3,3.4
				C299.1,113.5,300.5,112,300.5,110.1"/>
		</g>
	</g>
	<g>
		<g>
			<defs>
				<rect id="SVGID_37_" x="187.2" y="84.6" width="150.2" height="33.3"/>
			</defs>
			<clipPath id="SVGID_38_">
				<use xlink:href="#SVGID_37_"  style="overflow:visible;"/>
			</clipPath>
			<path class="st20" d="M303.4,106.1h0.9v1.5c0.5-1,1.5-1.5,2.9-1.5h0.5v0.9h-0.5c-2,0-2.9,1-2.9,3v4.2h-0.9V106.1z"/>
		</g>
	</g>
	<g>
		<g>
			<defs>
				<rect id="SVGID_39_" x="187.2" y="84.6" width="150.2" height="33.3"/>
			</defs>
			<clipPath id="SVGID_40_">
				<use xlink:href="#SVGID_39_"  style="overflow:visible;"/>
			</clipPath>
			<path class="st21" d="M308.6,106.1h1.4v-1.9l0.9-0.5v2.4h2.1v0.8h-2v4.3c0,1.8,0.4,2.1,2.1,2.1v0.9H313c-2.2,0-2.9-0.6-2.9-2.9
				V107h-1.4v-0.9H308.6z"/>
		</g>
	</g>
	<g>
		<g>
			<defs>
				<rect id="SVGID_41_" x="187.2" y="84.6" width="150.2" height="33.3"/>
			</defs>
			<clipPath id="SVGID_42_">
				<use xlink:href="#SVGID_41_"  style="overflow:visible;"/>
			</clipPath>
			<path class="st22" d="M314.2,106.1h0.9v1.5c0.5-1,1.6-1.7,3-1.7c2.2,0,3.6,1.4,3.6,3.7v4.5h-0.9v-4.5c0-1.7-1-2.9-2.8-2.9
				c-1.6,0-2.9,1.2-2.9,2.9v4.5h-0.9L314.2,106.1L314.2,106.1z"/>
		</g>
	</g>
	<g>
		<g>
			<defs>
				<rect id="SVGID_43_" x="187.2" y="84.6" width="150.2" height="33.3"/>
			</defs>
			<clipPath id="SVGID_44_">
				<use xlink:href="#SVGID_43_"  style="overflow:visible;"/>
			</clipPath>
			<path class="st23" d="M323.2,110.2c0-2.4,1.8-4.3,4.2-4.3c2.4,0,4.1,1.7,4.1,4.1v0.4H324c0.1,1.8,1.5,3.1,3.4,3.1
				c1.5,0,2.5-0.8,3.1-2l0.8,0.4c-0.7,1.6-2,2.5-3.8,2.5C324.8,114.3,323.2,112.5,323.2,110.2 M324.1,109.6h6.5
				c-0.2-1.7-1.4-2.8-3.2-2.8C325.7,106.8,324.4,108,324.1,109.6"/>
		</g>
	</g>
	<g>
		<g>
			<defs>
				<rect id="SVGID_45_" x="187.2" y="84.6" width="150.2" height="33.3"/>
			</defs>
			<clipPath id="SVGID_46_">
				<use xlink:href="#SVGID_45_"  style="overflow:visible;"/>
			</clipPath>
			<path class="st24" d="M333.1,106.1h0.9v1.5c0.5-1,1.5-1.5,2.9-1.5h0.5v0.9h-0.5c-2,0-2.9,1-2.9,3v4.2h-0.9V106.1z"/>
		</g>
	</g>
	<g>
		<g>
			<defs>
				<rect id="SVGID_47_" x="187.2" y="84.6" width="150.2" height="33.3"/>
			</defs>
			<clipPath id="SVGID_48_">
				<use xlink:href="#SVGID_47_"  style="overflow:visible;"/>
			</clipPath>
			<path class="st25" d="M193.1,87.6h8.9v-3h-8.9V87.6z M196,96.5h-8.9v3h8.9V96.5z M193.1,117.1h8.9v-3h-8.9V117.1z M204.9,87.6
				h14.8v-3h-14.8V87.6z M204.9,93.5h14.8v-3h-14.8V93.5z M204.9,99.4h14.8v-3h-14.8V99.4z M201.9,102.4h-14.8v3h14.8V102.4z
				 M204.9,111.2h14.8v-3h-14.8V111.2z"/>
		</g>
	</g>
</g>
<rect x="172.2" y="4.2" class="st0" width="191.7" height="62.5"/>
<g>
	<path class="st26" d="M228.4,26.9c0-2.4,1.9-4.2,4.3-4.2c1.8,0,3.2,1,3.9,2.5l-1.6,0.7c-0.4-0.9-1.2-1.5-2.3-1.5
		c-1.4,0-2.5,1.2-2.5,2.6s1.1,2.6,2.6,2.6c1.1,0,1.9-0.7,2.3-1.6l1.6,0.7c-0.7,1.5-2,2.6-3.9,2.6C230.3,31.2,228.4,29.3,228.4,26.9"
		/>
	<path class="st26" d="M237.1,26.9c0-2.6,1.9-4.2,4.1-4.2c1.1,0,2.1,0.5,2.7,1.2v-1.1h1.7V31h-1.7v-1.1c-0.6,0.8-1.6,1.3-2.7,1.3
		C239.1,31.2,237.1,29.5,237.1,26.9 M244,26.9c0-1.4-1.1-2.6-2.6-2.6c-1.4,0-2.6,1.2-2.6,2.6c0,1.5,1.1,2.7,2.6,2.7
		S244,28.4,244,26.9"/>
	<path class="st26" d="M247.2,22.8h1.7v1.3c0.4-0.8,1.2-1.3,2.4-1.3h0.8v1.7H251c-1.5,0-2.1,0.7-2.1,2.4v4h-1.8v-8.1H247.2z"/>
	<path class="st26" d="M252.5,26.9c0-2.6,1.9-4.2,4.1-4.2c1.1,0,2.1,0.5,2.7,1.3v-1.1h1.7v7.9c0,2.4-1.5,4.2-4.1,4.2
		c-2,0-3.4-1-4-2.3l1.6-0.8c0.4,0.9,1.2,1.5,2.4,1.5c1.5,0,2.4-1.1,2.4-2.5v-1c-0.6,0.8-1.7,1.3-2.7,1.3
		C254.5,31.2,252.5,29.5,252.5,26.9 M259.4,26.9c0-1.4-1.1-2.6-2.6-2.6c-1.4,0-2.6,1.2-2.6,2.6c0,1.5,1.1,2.7,2.6,2.7
		S259.4,28.4,259.4,26.9"/>
	<path class="st26" d="M262.2,26.9c0-2.4,1.9-4.2,4.2-4.2c2.3,0,4.2,1.9,4.2,4.2c0,2.4-1.9,4.2-4.2,4.2
		C264.1,31.2,262.2,29.3,262.2,26.9 M268.9,26.9c0-1.4-1.1-2.6-2.5-2.6s-2.5,1.2-2.5,2.6s1.1,2.6,2.5,2.6S268.9,28.3,268.9,26.9"/>
	<polygon class="st26" points="270.9,22.8 272.6,22.8 274.5,28.6 276.6,22.8 278.3,22.8 280.4,28.6 282.4,22.8 284.1,22.8 281.3,31 
		279.6,31 277.5,25.2 275.3,31 273.6,31 	"/>
	<path class="st26" d="M285.9,19.2c0.7,0,1.2,0.5,1.2,1.2s-0.5,1.2-1.2,1.2s-1.2-0.5-1.2-1.2C284.7,19.7,285.2,19.2,285.9,19.2
		 M285,22.8h1.8V31H285V22.8z"/>
	<path class="st26" d="M287.6,29.3l1.6-0.8c0.5,0.8,1.2,1.2,2.2,1.2s1.5-0.5,1.5-1.1c0-0.7-1-0.8-2-1c-1.4-0.3-2.9-0.7-2.9-2.4
		c0-1.3,1.2-2.5,3.2-2.5c1.6,0,2.6,0.6,3.3,1.6L293,25c-0.4-0.6-1-0.9-1.9-0.9c-1,0-1.4,0.4-1.4,1s0.7,0.7,1.9,1
		c1.4,0.3,2.9,0.7,2.9,2.5c0,1.2-1.1,2.6-3.4,2.6C289.4,31.2,288.3,30.5,287.6,29.3"/>
	<path class="st26" d="M295.2,26.9c0-2.4,1.8-4.3,4.2-4.3c2.4,0,4.2,1.7,4.2,4.2v0.7h-6.7c0.2,1.3,1.2,2.1,2.6,2.1
		c1.1,0,2-0.6,2.4-1.5l1.4,0.8c-0.7,1.3-2,2.2-3.8,2.2C297,31.2,295.2,29.3,295.2,26.9 M297,26h4.9c-0.3-1.2-1.2-1.8-2.4-1.8
		C298.3,24.2,297.3,25,297,26"/>
	<path class="st26" d="M229.6,47.1v1.7h-0.9V36.9h0.9v5.4c0.7-1.2,2-1.8,3.3-1.8c2.4,0,4.2,1.9,4.2,4.2s-1.8,4.2-4.2,4.2
		C231.7,49,230.3,48.3,229.6,47.1 M236.2,44.8c0-1.9-1.4-3.4-3.3-3.4c-1.9,0-3.4,1.5-3.4,3.4s1.4,3.4,3.4,3.4
		C234.7,48.2,236.2,46.6,236.2,44.8"/>
	<path class="st26" d="M238.6,45.3v-4.6h0.9v4.6c0,1.7,0.9,2.9,2.7,2.9c1.6,0,2.8-1.3,2.8-2.9v-4.5h0.9v8.1H245v-1.5
		c-0.5,1-1.6,1.7-2.9,1.7C239.9,49,238.6,47.6,238.6,45.3"/>
	<path class="st26" d="M247.2,47.5l0.7-0.6c0.6,0.8,1.5,1.3,2.6,1.3c1.4,0,2.1-0.7,2.1-1.6c0-1-1.2-1.2-2.3-1.5
		c-1.3-0.3-2.7-0.7-2.7-2.3c0-1.2,1.1-2.3,2.9-2.3c1.2,0,2.3,0.5,3,1.2l-0.7,0.6c-0.6-0.6-1.3-1-2.3-1c-1.3,0-2,0.6-2,1.4
		c0,1,1.1,1.2,2.3,1.5c1.3,0.3,2.8,0.7,2.8,2.3c0,1.1-1,2.4-3.1,2.4C249.1,49,247.9,48.4,247.2,47.5"/>
	<path class="st26" d="M255.6,37.3c0.5,0,0.8,0.4,0.8,0.8c0,0.5-0.4,0.8-0.8,0.8c-0.5,0-0.8-0.4-0.8-0.8
		C254.7,37.7,255.1,37.3,255.6,37.3 M255.1,40.7h0.9v8.1h-0.9V40.7z"/>
	<path class="st26" d="M258,40.7h0.9v1.5c0.6-1,1.6-1.7,3-1.7c2.2,0,3.6,1.4,3.6,3.7v4.6h-0.9v-4.6c0-1.7-1-2.9-2.8-2.9
		c-1.6,0-2.9,1.3-2.9,2.9v4.5H258V40.7z"/>
	<path class="st26" d="M267,44.8c0-2.4,1.8-4.3,4.2-4.3c2.4,0,4.2,1.7,4.2,4.1V45h-7.5c0.1,1.8,1.5,3.1,3.4,3.1c1.5,0,2.5-0.8,3.1-2
		l0.8,0.4c-0.7,1.6-2,2.5-3.9,2.5C268.7,49,267,47.2,267,44.8 M267.9,44.2h6.5c-0.2-1.7-1.4-2.9-3.2-2.9
		C269.5,41.4,268.2,42.6,267.9,44.2"/>
	<path class="st26" d="M276.1,47.5l0.7-0.6c0.6,0.8,1.5,1.3,2.6,1.3c1.4,0,2.1-0.7,2.1-1.6c0-1-1.2-1.2-2.3-1.5
		c-1.3-0.3-2.7-0.7-2.7-2.3c0-1.2,1.1-2.3,2.9-2.3c1.2,0,2.3,0.5,3,1.2l-0.7,0.6c-0.6-0.6-1.3-1-2.3-1c-1.3,0-2,0.6-2,1.4
		c0,1,1.1,1.2,2.3,1.5c1.3,0.3,2.8,0.7,2.8,2.3c0,1.1-1,2.4-3.1,2.4C278,49,276.9,48.4,276.1,47.5"/>
	<path class="st26" d="M283.4,47.5l0.7-0.6c0.6,0.8,1.5,1.3,2.6,1.3c1.4,0,2.1-0.7,2.1-1.6c0-1-1.2-1.2-2.3-1.5
		c-1.3-0.3-2.7-0.7-2.7-2.3c0-1.2,1.1-2.3,2.9-2.3c1.2,0,2.3,0.5,3,1.2l-0.7,0.6c-0.6-0.6-1.3-1-2.3-1c-1.3,0-2,0.6-2,1.4
		c0,1,1.1,1.2,2.3,1.5c1.3,0.3,2.8,0.7,2.8,2.3c0,1.1-1,2.4-3.1,2.4C285.3,49,284.1,48.4,283.4,47.5"/>
	<path class="st26" d="M295.7,47.2v5.4h-0.9V40.7h0.9v1.7c0.7-1.2,2-1.9,3.3-1.9c2.4,0,4.2,1.9,4.2,4.2s-1.8,4.2-4.2,4.2
		C297.6,49,296.3,48.4,295.7,47.2 M302.2,44.8c0-1.9-1.4-3.4-3.3-3.4s-3.3,1.5-3.3,3.4s1.4,3.4,3.3,3.4
		C300.8,48.2,302.2,46.6,302.2,44.8"/>
	<path class="st26" d="M304.3,44.8c0-2.3,1.8-4.2,4.2-4.2c1.2,0,2.6,0.7,3.3,1.9v-1.7h0.9v8.1h-0.9v-1.7c-0.7,1.2-2.1,1.9-3.3,1.9
		C306.1,49,304.3,47.1,304.3,44.8 M311.9,44.8c0-1.9-1.4-3.4-3.3-3.4c-1.8,0-3.3,1.5-3.3,3.4s1.5,3.4,3.3,3.4
		C310.5,48.2,311.9,46.6,311.9,44.8"/>
	<path class="st26" d="M314.8,40.7h0.9v1.5c0.5-1,1.5-1.5,2.9-1.5h0.5v0.9h-0.5c-2,0-2.9,1-2.9,3v4.3h-0.9V40.7z"/>
	<path class="st26" d="M320.1,40.7h1.4v-1.9l0.9-0.6v2.5h2.1v0.8h-2.1v4.3c0,1.8,0.4,2.1,2.1,2.1v0.9h-0.1c-2.3,0-2.9-0.6-2.9-3
		v-4.3h-1.4V40.7z"/>
	<path class="st26" d="M325.7,40.7h0.9v1.5c0.6-1,1.6-1.7,3-1.7c2.2,0,3.6,1.4,3.6,3.7v4.6h-0.9v-4.6c0-1.7-1-2.9-2.8-2.9
		c-1.6,0-2.9,1.3-2.9,2.9v4.5h-0.9L325.7,40.7L325.7,40.7z"/>
	<path class="st26" d="M334.7,44.8c0-2.4,1.8-4.3,4.2-4.3c2.4,0,4.2,1.7,4.2,4.1V45h-7.5c0.1,1.8,1.5,3.1,3.4,3.1
		c1.5,0,2.5-0.8,3.1-2l0.8,0.4c-0.7,1.6-2,2.5-3.9,2.5C336.4,49,334.7,47.2,334.7,44.8 M335.7,44.2h6.5c-0.2-1.7-1.4-2.9-3.2-2.9
		C337.3,41.4,335.9,42.6,335.7,44.2"/>
	<path class="st26" d="M344.7,40.7h0.9v1.5c0.5-1,1.5-1.5,2.9-1.5h0.5v0.9h-0.5c-2,0-2.9,1-2.9,3v4.3h-0.9V40.7z"/>
	<path class="st26" d="M193,22.1h8.9v-3H193V22.1z M196,31h-8.9v3h8.9V31z M193,51.8h8.9v-3H193V51.8z M204.9,22.1h14.9v-3h-14.9
		V22.1z M204.9,28h14.9v-3h-14.9V28z M204.9,34h14.9v-3h-14.9V34z M201.9,36.9H187v3h14.9V36.9z M204.9,45.9h14.9v-3h-14.9V45.9z"/>
</g>
<g>
	
		<linearGradient id="SVGID_49_" gradientUnits="userSpaceOnUse" x1="-8.6958" y1="973.6346" x2="113.7882" y2="846.8376" gradientTransform="matrix(1 0 0 1 0 -864)">
		<stop  offset="0" style="stop-color:#F5B156"/>
		<stop  offset="0.3925" style="stop-color:#00B9B5"/>
		<stop  offset="1" style="stop-color:#6190CB"/>
	</linearGradient>
	<path class="st27" d="M48.3,81.9c-5.2-3-11-3.3-13.5-3.3L13.4,6.3c4.7,1,13.8,3.9,16.5,12.4l8,30.7c-1.4,1-2.3,2.6-2.3,4.4
		c0,3,2.4,5.4,5.4,5.4s5.4-2.4,5.4-5.4c0-2.8-2.1-5.1-4.8-5.4l-7.2-27.5c2.4,0.8,5.5,2.5,6.8,5.8c2.2,5.8,8.4,32.8,9.8,38.9
		c-1.4,1-2.4,2.6-2.4,4.5c0,3,2.4,5.4,5.4,5.4s5.4-2.4,5.4-5.4c0-2.7-2-5-4.7-5.4c-1.4-6.2-7.7-33.3-10-39.4
		c-2.3-6.2-8.9-8.3-11.7-8.9C28.2,3.4,11.5,2,10.8,1.9L7.9,1.7l22.9,77.2c-3.2,0.6-8.2,2.5-11.4,8.7c-3.8,7.2-1.6,11,0,12.6
		c-0.3,3.7,2.7,6.4,2.9,6.5l2.3,2l0.9-2.9c0.2-0.7,1.5-4.2,6-3.4c1.7,0.3,3.1,1.2,4.2,2.8c1.5,2.3,3.6,7.9,1,19.9l-12,12.5l2.8,2.7
		c2.8-2.9,7.9-6.6,10.3-6.1l0.8-3.8c-0.5-0.1-1-0.2-1.6-0.1l3.1-3.3l0.1-0.5c2.4-10.2,1.9-18.5-1.4-23.4c-1.7-2.5-4-4.1-6.8-4.5
		c-4.2-0.7-7,1-8.7,2.9c-0.1-0.5-0.2-1,0-1.6l0.4-1.5l-1.4-0.7c0,0-2.9-1.8,0.5-8.3c3.7-7.1,10.4-6.9,10.7-6.9h0.2h0.1
		c0.1,0,7.6-0.6,13.5,3.3l1.1,0.8l89.6-65c-1.6,5.7-5.3,14.9-12.6,20.5L94,65.8c-0.8-0.5-1.9-0.9-2.9-0.9c-3,0-5.4,2.4-5.4,5.4
		s2.4,5.4,5.4,5.4s5.4-2.4,5.4-5.4c0-0.5-0.1-1-0.2-1.4l29.4-22.1c0.6,2.9,0.3,8.5-6.7,15.7L88.9,86.7C88,86.2,87,85.9,86,85.9
		c-3,0-5.4,2.4-5.4,5.4s2.4,5.4,5.4,5.4s5.4-2.4,5.4-5.4c0-0.5-0.1-1-0.2-1.5l30.3-24.2l0.2-0.2c9.7-9.9,8.5-17.8,7.3-21.1
		c11.4-9.7,14-26.3,14.1-27l0.7-4.6L48.3,81.9z M57,70.1c0,1.6-1.3,2.9-2.9,2.9c-1.6,0-2.9-1.3-2.9-2.9s1.3-2.9,2.9-2.9
		S57,68.5,57,70.1z M43.9,53.8c0,1.6-1.3,2.9-2.9,2.9s-2.9-1.3-2.9-2.9c0-1.6,1.3-2.9,2.9-2.9S43.9,52.2,43.9,53.8z M86,94.2
		c-1.6,0-2.9-1.3-2.9-2.9s1.3-2.9,2.9-2.9s2.9,1.3,2.9,2.9S87.6,94.2,86,94.2z M91.1,73.3c-1.6,0-2.9-1.3-2.9-2.9s1.3-2.9,2.9-2.9
		s2.9,1.3,2.9,2.9C93.9,72,92.7,73.3,91.1,73.3z"/>
	
		<linearGradient id="SVGID_50_" gradientUnits="userSpaceOnUse" x1="46.194" y1="1026.6573" x2="168.6871" y2="899.851" gradientTransform="matrix(1 0 0 1 0 -864)">
		<stop  offset="0" style="stop-color:#F5B156"/>
		<stop  offset="0.3925" style="stop-color:#00B9B5"/>
		<stop  offset="1" style="stop-color:#6190CB"/>
	</linearGradient>
	<path class="st28" d="M64,96.8l44,42.7c-2.8,1.1-8.2,1.8-15.2-3.8l-23.5-23.5l-2.8,2.8l22.2,22.2c-1.2,1.2-3.3,2.7-5.7,3
		c-1.8,0.2-3.4-0.4-5.1-1.7l-6.8-6.8l-2.8,2.8l4.4,4.4c-1.8,0.2-4,0.1-6-1.2l-3.2-11.9l-3.8,1l3.5,13.2l0.5,0.4
		c4.5,3.7,10.1,2.6,12.4,1.8c1.9,1.3,3.9,2,6,2c0.4,0,0.8,0,1.1-0.1c3.7-0.4,6.6-2.7,8.2-4.3c12,8.6,20.7,1.8,20.7,1.7l1.7-1.4
		L66.7,94L64,96.8z"/>
	
		<linearGradient id="SVGID_51_" gradientUnits="userSpaceOnUse" x1="31.8267" y1="1012.7787" x2="154.3107" y2="885.9819" gradientTransform="matrix(1 0 0 1 0 -864)">
		<stop  offset="0" style="stop-color:#F5B156"/>
		<stop  offset="0.3925" style="stop-color:#00B9B5"/>
		<stop  offset="1" style="stop-color:#6190CB"/>
	</linearGradient>
	<path class="st29" d="M49.9,126.1l-15.9,15c-0.1,0.1-0.2,0.2-0.3,0.3l2.7,2.8l0.3-0.3c3-2.8,8.2-6.3,10.6-5.7l1.1-3.8
		c-0.5-0.1-1-0.2-1.4-0.2l5.6-5.3L49.9,126.1z"/>
	
		<linearGradient id="SVGID_52_" gradientUnits="userSpaceOnUse" x1="2.8134" y1="984.7523" x2="125.2974" y2="857.9555" gradientTransform="matrix(1 0 0 1 0 -864)">
		<stop  offset="0" style="stop-color:#F5B156"/>
		<stop  offset="0.3925" style="stop-color:#00B9B5"/>
		<stop  offset="1" style="stop-color:#6190CB"/>
	</linearGradient>
	<circle class="st30" cx="27.4" cy="95.3" r="1.1"/>
</g>
<g>
	<path class="st26" d="M52,206.3c-6.7,5.6-15.6,5.7-18.1,5.7c-3.3,0-13.9-0.2-21.6-8.2c-0.9-1-2-2.4-2.7-3.6l8.7-6
		c2.4,3.6,7,8.3,17.2,8.3c0.5,0,2.4,0,4.1-0.4c1.2-0.2,6.6-1.7,6.6-6.9c0-0.5-0.1-2-1-3.3c-1.9-2.5-6.9-3.2-9.6-3.8l-6.6-1.5
		c-2.8-0.6-5.9-1.3-8.4-2.6c-2.6-1.3-7.9-4.9-7.9-12.9c0-1.3,0.2-4.9,2.1-8.2c2.5-4.2,8.5-9.1,19.8-9.1c4.9,0,14.7,0.8,22.3,11.2
		l-8.5,6.3c-1.7-2.7-5.6-8.2-14.3-8.2c-0.5,0-7.5-0.1-9.8,4.2c-0.5,0.9-0.6,1.6-0.6,2.5s0.2,1.7,0.7,2.5c1.3,2.3,4.4,3,9.5,4.1
		l5.7,1.3c5.3,1.2,11.1,2.7,14.7,7.1c1.6,1.7,3.2,4.2,3.2,9.3C57.4,199.1,55.8,203,52,206.3z"/>
	<path class="st26" d="M76.7,164.5v13.8h23.1v8.9H76.7v23.4H66.5v-55.3h36.6v9.2L76.7,164.5L76.7,164.5z"/>
	<path class="st26" d="M110.6,210.6v-55.3H121v45.9h22v9.4H110.6z"/>
</g>
<g>
	<path class="st26" d="M231.1,138.1c-0.6,0-1.1-0.2-1.4-0.6v2.5h-0.9v-6.2h0.9v0.6c0.2-0.2,0.4-0.4,0.6-0.5c0.3-0.1,0.5-0.2,0.8-0.2
		c0.6,0,1.1,0.2,1.5,0.6c0.4,0.4,0.6,0.9,0.6,1.6c0,0.7-0.2,1.2-0.6,1.6S231.7,138.1,231.1,138.1z M231,137.3c0.4,0,0.7-0.1,1-0.4
		c0.3-0.3,0.4-0.6,0.4-1c0-0.4-0.1-0.7-0.4-1c-0.3-0.3-0.6-0.4-1-0.4c-0.4,0-0.7,0.1-1,0.4c-0.3,0.3-0.4,0.6-0.4,1
		c0,0.4,0.1,0.7,0.4,1C230.3,137.1,230.6,137.3,231,137.3z"/>
	<path class="st26" d="M233.9,138v-6.2h0.9v6.2H233.9z"/>
	<path class="st26" d="M237.7,138.1c-0.6,0-1.1-0.2-1.5-0.6c-0.4-0.4-0.6-0.9-0.6-1.6c0-0.7,0.2-1.2,0.6-1.6
		c0.4-0.4,0.9-0.6,1.5-0.6c0.3,0,0.5,0.1,0.8,0.2c0.3,0.1,0.5,0.3,0.6,0.5v-0.6h0.9v4.2h-0.9v-0.6c-0.2,0.2-0.4,0.4-0.6,0.5
		S238,138.1,237.7,138.1z M237.8,137.3c0.4,0,0.7-0.1,1-0.4c0.3-0.3,0.4-0.6,0.4-1c0-0.4-0.1-0.7-0.4-1c-0.3-0.3-0.6-0.4-1-0.4
		c-0.4,0-0.7,0.1-1,0.4c-0.3,0.3-0.4,0.6-0.4,1c0,0.4,0.1,0.7,0.4,1C237.1,137.1,237.4,137.3,237.8,137.3z"/>
	<path class="st26" d="M240.7,134.6v-0.8h0.7v-1l0.9-0.5v1.5h0.9v0.8h-0.9v1.7c0,0.4,0.1,0.6,0.2,0.7c0.1,0.1,0.4,0.2,0.7,0.2v0.9
		h-0.1c-0.6,0-1.1-0.1-1.3-0.4c-0.2-0.2-0.4-0.7-0.4-1.4v-1.7H240.7z"/>
	<path class="st26" d="M244,133.2V132h0.9v1.2H244z M244,138v-4.2h0.9v4.2H244z"/>
	<path class="st26" d="M245.8,138v-4.2h0.9v0.6c0.3-0.4,0.7-0.6,1.3-0.6c0.5,0,1,0.2,1.3,0.5c0.3,0.3,0.5,0.8,0.5,1.4v2.5h-0.9v-2.4
		c0-0.4-0.1-0.6-0.3-0.8c-0.2-0.2-0.4-0.3-0.8-0.3c-0.3,0-0.6,0.1-0.8,0.3c-0.2,0.2-0.3,0.5-0.3,0.9v2.3H245.8z"/>
	<path class="st26" d="M252.3,138.1c-0.6,0-1-0.2-1.3-0.5c-0.3-0.3-0.5-0.8-0.5-1.4v-2.5h0.9v2.4c0,0.4,0.1,0.6,0.3,0.8
		s0.4,0.3,0.8,0.3c0.3,0,0.6-0.1,0.8-0.3c0.2-0.2,0.3-0.5,0.3-0.9v-2.3h0.9v4.2h-0.9v-0.6C253.3,137.9,252.9,138.1,252.3,138.1z"/>
	<path class="st26" d="M255.4,138v-4.2h0.9v0.5c0.3-0.4,0.7-0.6,1.2-0.6c0.7,0,1.1,0.3,1.4,0.8c0.3-0.5,0.8-0.8,1.4-0.8
		c0.6,0,1,0.2,1.3,0.5c0.3,0.3,0.5,0.8,0.5,1.3v2.5h-0.9v-2.5c0-0.3-0.1-0.6-0.3-0.8s-0.4-0.3-0.7-0.3c-0.3,0-0.5,0.1-0.7,0.3
		c-0.2,0.2-0.3,0.5-0.3,0.8v2.4h-0.9v-2.5c0-0.3-0.1-0.6-0.3-0.7s-0.4-0.3-0.7-0.3c-0.3,0-0.6,0.1-0.8,0.3c-0.2,0.2-0.3,0.5-0.3,0.9
		v2.4H255.4z"/>
	<path class="st26" d="M267.3,138.1c-0.6,0-1.1-0.2-1.6-0.6c-0.4-0.4-0.6-1-0.6-1.6s0.2-1.1,0.6-1.6c0.4-0.4,0.9-0.6,1.6-0.6
		c0.3,0,0.7,0.1,1,0.3c0.3,0.2,0.6,0.4,0.7,0.7v-0.9h0.5v4.2H269v-0.9c-0.2,0.3-0.4,0.5-0.7,0.7C268,138,267.6,138.1,267.3,138.1z
		 M267.3,137.6c0.5,0,0.9-0.2,1.2-0.5s0.5-0.8,0.5-1.3c0-0.5-0.2-0.9-0.5-1.2c-0.3-0.3-0.8-0.5-1.2-0.5c-0.5,0-0.9,0.2-1.2,0.5
		c-0.3,0.3-0.5,0.8-0.5,1.2s0.2,0.9,0.5,1.2C266.4,137.5,266.8,137.6,267.3,137.6z"/>
	<path class="st26" d="M272.8,138.1c-0.6,0-1.2-0.2-1.6-0.6s-0.6-1-0.6-1.6c0-0.6,0.2-1.2,0.6-1.6c0.4-0.4,1-0.6,1.6-0.6
		c0.5,0,0.9,0.1,1.2,0.4c0.4,0.2,0.6,0.5,0.8,0.9l-0.4,0.2c-0.1-0.3-0.3-0.6-0.6-0.8c-0.3-0.2-0.6-0.3-1-0.3c-0.5,0-0.9,0.2-1.2,0.5
		c-0.3,0.3-0.5,0.8-0.5,1.3s0.2,0.9,0.5,1.3s0.8,0.5,1.2,0.5c0.4,0,0.7-0.1,1-0.3c0.3-0.2,0.5-0.5,0.6-0.8l0.5,0.2
		c-0.2,0.4-0.4,0.7-0.8,1C273.7,138,273.2,138.1,272.8,138.1z"/>
	<path class="st26" d="M277.8,138.1c-0.6,0-1.2-0.2-1.6-0.6s-0.6-1-0.6-1.6c0-0.6,0.2-1.2,0.6-1.6c0.4-0.4,1-0.6,1.6-0.6
		c0.5,0,0.9,0.1,1.2,0.4c0.4,0.2,0.6,0.5,0.8,0.9l-0.4,0.2c-0.1-0.3-0.3-0.6-0.6-0.8c-0.3-0.2-0.6-0.3-1-0.3c-0.5,0-0.9,0.2-1.2,0.5
		c-0.3,0.3-0.5,0.8-0.5,1.3s0.2,0.9,0.5,1.3s0.8,0.5,1.2,0.5c0.4,0,0.7-0.1,1-0.3c0.3-0.2,0.5-0.5,0.6-0.8l0.5,0.2
		c-0.2,0.4-0.4,0.7-0.8,1C278.7,138,278.3,138.1,277.8,138.1z"/>
	<path class="st26" d="M284.4,137.4c-0.4,0.4-1,0.6-1.6,0.6c-0.6,0-1.1-0.2-1.6-0.6s-0.6-1-0.6-1.6c0-0.6,0.2-1.1,0.6-1.6
		s0.9-0.6,1.6-0.6c0.6,0,1.1,0.2,1.6,0.6s0.6,1,0.6,1.6C285,136.5,284.8,137,284.4,137.4z M281.6,137.1c0.3,0.3,0.7,0.5,1.2,0.5
		c0.5,0,0.9-0.2,1.2-0.5c0.3-0.3,0.5-0.8,0.5-1.2s-0.2-0.9-0.5-1.2c-0.3-0.3-0.7-0.5-1.2-0.5c-0.5,0-0.9,0.2-1.2,0.5
		c-0.3,0.3-0.5,0.8-0.5,1.2S281.3,136.8,281.6,137.1z"/>
	<path class="st26" d="M287.9,138.1c-0.6,0-1.1-0.2-1.4-0.5s-0.5-0.8-0.5-1.4v-2.4h0.5v2.4c0,0.5,0.1,0.8,0.4,1.1
		c0.3,0.3,0.6,0.4,1.1,0.4c0.4,0,0.8-0.1,1.1-0.4s0.4-0.7,0.4-1.1v-2.4h0.5v4.2h-0.5v-0.8c-0.1,0.3-0.4,0.5-0.6,0.6
		C288.6,138,288.3,138.1,287.9,138.1z"/>
	<path class="st26" d="M291.2,138v-4.2h0.5v0.8c0.1-0.3,0.4-0.5,0.6-0.6c0.3-0.2,0.6-0.2,0.9-0.2c0.6,0,1,0.2,1.4,0.5
		s0.5,0.8,0.5,1.4v2.4h-0.5v-2.4c0-0.5-0.1-0.8-0.4-1.1c-0.3-0.3-0.6-0.4-1.1-0.4c-0.4,0-0.8,0.1-1.1,0.4s-0.4,0.7-0.4,1.1v2.4
		H291.2z"/>
	<path class="st26" d="M295.9,134.2v-0.4h0.7v-1l0.5-0.3v1.3h1.1v0.4h-1.1v2.3c0,0.5,0.1,0.8,0.2,0.9c0.1,0.1,0.4,0.2,0.9,0.2v0.5
		h-0.1c-0.6,0-1-0.1-1.2-0.3s-0.3-0.6-0.3-1.2v-2.3H295.9z"/>
	<path class="st26" d="M299.2,133v-1.2h0.5v1.2H299.2z M299.2,138v-4.2h0.5v4.2H299.2z"/>
	<path class="st26" d="M300.9,138v-4.2h0.5v0.8c0.1-0.3,0.4-0.5,0.6-0.6c0.3-0.2,0.6-0.2,0.9-0.2c0.6,0,1,0.2,1.4,0.5
		s0.5,0.8,0.5,1.4v2.4h-0.5v-2.4c0-0.5-0.1-0.8-0.4-1.1c-0.3-0.3-0.6-0.4-1.1-0.4c-0.4,0-0.8,0.1-1.1,0.4s-0.4,0.7-0.4,1.1v2.4
		H300.9z"/>
	<path class="st26" d="M308,138.1c-0.6,0-1.1-0.2-1.6-0.6c-0.4-0.4-0.6-1-0.6-1.6s0.2-1.1,0.6-1.6c0.4-0.4,0.9-0.6,1.6-0.6
		c0.3,0,0.7,0.1,1,0.3c0.3,0.2,0.6,0.4,0.7,0.7v-0.9h0.5v4.2c0,0.7-0.2,1.2-0.6,1.6c-0.4,0.4-0.9,0.6-1.5,0.6c-1,0-1.7-0.4-2-1.2
		l0.5-0.2c0.2,0.6,0.8,0.9,1.5,0.9c0.5,0,0.9-0.2,1.2-0.5c0.3-0.3,0.4-0.7,0.4-1.2v-0.8c-0.2,0.3-0.4,0.5-0.7,0.7
		S308.3,138.1,308,138.1z M308,137.6c0.5,0,0.9-0.2,1.2-0.5s0.5-0.8,0.5-1.3c0-0.5-0.2-0.9-0.5-1.2c-0.3-0.3-0.8-0.5-1.2-0.5
		c-0.5,0-0.9,0.2-1.2,0.5c-0.3,0.3-0.5,0.8-0.5,1.2s0.2,0.9,0.5,1.2C307.1,137.5,307.5,137.6,308,137.6z"/>
	<path class="st26" d="M231.1,150.3c-0.6,0-1.1-0.2-1.4-0.6v2.5h-0.9V146h0.9v0.6c0.2-0.2,0.4-0.4,0.6-0.5c0.3-0.1,0.5-0.2,0.8-0.2
		c0.6,0,1.1,0.2,1.5,0.6c0.4,0.4,0.6,0.9,0.6,1.6c0,0.7-0.2,1.2-0.6,1.6S231.7,150.3,231.1,150.3z M231,149.5c0.4,0,0.7-0.1,1-0.4
		c0.3-0.3,0.4-0.6,0.4-1c0-0.4-0.1-0.7-0.4-1c-0.3-0.3-0.6-0.4-1-0.4c-0.4,0-0.7,0.1-1,0.4c-0.3,0.3-0.4,0.6-0.4,1
		c0,0.4,0.1,0.7,0.4,1C230.3,149.3,230.6,149.5,231,149.5z"/>
	<path class="st26" d="M233.9,150.2V144h0.9v6.2H233.9z"/>
	<path class="st26" d="M237.7,150.3c-0.6,0-1.1-0.2-1.5-0.6c-0.4-0.4-0.6-0.9-0.6-1.6c0-0.7,0.2-1.2,0.6-1.6
		c0.4-0.4,0.9-0.6,1.5-0.6c0.3,0,0.5,0.1,0.8,0.2c0.3,0.1,0.5,0.3,0.6,0.5V146h0.9v4.2h-0.9v-0.6c-0.2,0.2-0.4,0.4-0.6,0.5
		S238,150.3,237.7,150.3z M237.8,149.5c0.4,0,0.7-0.1,1-0.4c0.3-0.3,0.4-0.6,0.4-1c0-0.4-0.1-0.7-0.4-1c-0.3-0.3-0.6-0.4-1-0.4
		c-0.4,0-0.7,0.1-1,0.4c-0.3,0.3-0.4,0.6-0.4,1c0,0.4,0.1,0.7,0.4,1C237.1,149.3,237.4,149.5,237.8,149.5z"/>
	<path class="st26" d="M240.7,146.8V146h0.7v-1l0.9-0.5v1.5h0.9v0.8h-0.9v1.7c0,0.4,0.1,0.6,0.2,0.7c0.1,0.1,0.4,0.2,0.7,0.2v0.9
		h-0.1c-0.6,0-1.1-0.1-1.3-0.4c-0.2-0.2-0.4-0.7-0.4-1.4v-1.7H240.7z"/>
	<path class="st26" d="M244,145.4v-1.2h0.9v1.2H244z M244,150.2V146h0.9v4.2H244z"/>
	<path class="st26" d="M245.8,150.2V146h0.9v0.6c0.3-0.4,0.7-0.6,1.3-0.6c0.5,0,1,0.2,1.3,0.5c0.3,0.3,0.5,0.8,0.5,1.4v2.5h-0.9
		v-2.4c0-0.4-0.1-0.6-0.3-0.8c-0.2-0.2-0.4-0.3-0.8-0.3c-0.3,0-0.6,0.1-0.8,0.3c-0.2,0.2-0.3,0.5-0.3,0.9v2.3H245.8z"/>
	<path class="st26" d="M252.3,150.3c-0.6,0-1-0.2-1.3-0.5c-0.3-0.3-0.5-0.8-0.5-1.4V146h0.9v2.4c0,0.4,0.1,0.6,0.3,0.8
		s0.4,0.3,0.8,0.3c0.3,0,0.6-0.1,0.8-0.3c0.2-0.2,0.3-0.5,0.3-0.9V146h0.9v4.2h-0.9v-0.6C253.3,150.1,252.9,150.3,252.3,150.3z"/>
	<path class="st26" d="M255.4,150.2V146h0.9v0.5c0.3-0.4,0.7-0.6,1.2-0.6c0.7,0,1.1,0.3,1.4,0.8c0.3-0.5,0.8-0.8,1.4-0.8
		c0.6,0,1,0.2,1.3,0.5c0.3,0.3,0.5,0.8,0.5,1.3v2.5h-0.9v-2.5c0-0.3-0.1-0.6-0.3-0.8s-0.4-0.3-0.7-0.3c-0.3,0-0.5,0.1-0.7,0.3
		c-0.2,0.2-0.3,0.5-0.3,0.8v2.4h-0.9v-2.5c0-0.3-0.1-0.6-0.3-0.7s-0.4-0.3-0.7-0.3c-0.3,0-0.6,0.1-0.8,0.3c-0.2,0.2-0.3,0.5-0.3,0.9
		v2.4H255.4z"/>
	<path class="st26" d="M266.4,150.2L265,146h0.5l1.1,3.5l1.4-3.5h0.5l1.4,3.5l1.2-3.5h0.5l-1.4,4.2h-0.5l-1.4-3.6l-1.4,3.6H266.4z"
		/>
	<path class="st26" d="M275.9,149.6c-0.4,0.4-1,0.6-1.6,0.6c-0.6,0-1.1-0.2-1.6-0.6s-0.6-1-0.6-1.6c0-0.6,0.2-1.1,0.6-1.6
		s0.9-0.6,1.6-0.6c0.6,0,1.1,0.2,1.6,0.6s0.6,1,0.6,1.6C276.6,148.7,276.3,149.2,275.9,149.6z M273.1,149.3c0.3,0.3,0.7,0.5,1.2,0.5
		c0.5,0,0.9-0.2,1.2-0.5c0.3-0.3,0.5-0.8,0.5-1.2s-0.2-0.9-0.5-1.2c-0.3-0.3-0.7-0.5-1.2-0.5c-0.5,0-0.9,0.2-1.2,0.5
		c-0.3,0.3-0.5,0.8-0.5,1.2S272.8,149,273.1,149.3z"/>
	<path class="st26" d="M277.6,150.2V146h0.5v0.8c0.3-0.5,0.7-0.8,1.4-0.8h0.4v0.5h-0.4c-0.4,0-0.8,0.1-1,0.4
		c-0.2,0.3-0.4,0.7-0.4,1.2v2.2H277.6z"/>
	<path class="st26" d="M283.9,150.2l-1.6-2.2l-1,1v1.2h-0.5V144h0.5v4.5l2.4-2.5h0.6l-1.7,1.8l1.8,2.5H283.9z"/>
	<path class="st26" d="M285,146.4V146h0.7v-0.4c0-0.6,0.1-1,0.3-1.2c0.2-0.2,0.6-0.3,1.2-0.3h0v0.5c-0.5,0-0.8,0.1-0.9,0.2
		c-0.1,0.1-0.2,0.4-0.2,0.9v0.4h1.1v0.4h-1.1v3.8h-0.5v-3.8H285z"/>
	<path class="st26" d="M288.2,150.2V144h0.5v6.2H288.2z"/>
	<path class="st26" d="M293.5,149.6c-0.4,0.4-1,0.6-1.6,0.6c-0.6,0-1.1-0.2-1.6-0.6s-0.6-1-0.6-1.6c0-0.6,0.2-1.1,0.6-1.6
		s0.9-0.6,1.6-0.6c0.6,0,1.1,0.2,1.6,0.6s0.6,1,0.6,1.6C294.1,148.7,293.9,149.2,293.5,149.6z M290.7,149.3c0.3,0.3,0.7,0.5,1.2,0.5
		c0.5,0,0.9-0.2,1.2-0.5c0.3-0.3,0.5-0.8,0.5-1.2s-0.2-0.9-0.5-1.2c-0.3-0.3-0.7-0.5-1.2-0.5c-0.5,0-0.9,0.2-1.2,0.5
		c-0.3,0.3-0.5,0.8-0.5,1.2S290.4,149,290.7,149.3z"/>
	<path class="st26" d="M296.2,150.2l-1.4-4.2h0.5l1.1,3.5l1.4-3.5h0.5l1.4,3.5l1.2-3.5h0.5l-1.4,4.2h-0.5l-1.4-3.6l-1.4,3.6H296.2z"
		/>
	<path class="st26" d="M231.1,162.5c-0.6,0-1.1-0.2-1.4-0.6v2.5h-0.9v-6.2h0.9v0.6c0.2-0.2,0.4-0.4,0.6-0.5c0.3-0.1,0.5-0.2,0.8-0.2
		c0.6,0,1.1,0.2,1.5,0.6c0.4,0.4,0.6,0.9,0.6,1.6c0,0.7-0.2,1.2-0.6,1.6S231.7,162.5,231.1,162.5z M231,161.7c0.4,0,0.7-0.1,1-0.4
		c0.3-0.3,0.4-0.6,0.4-1c0-0.4-0.1-0.7-0.4-1c-0.3-0.3-0.6-0.4-1-0.4c-0.4,0-0.7,0.1-1,0.4c-0.3,0.3-0.4,0.6-0.4,1
		c0,0.4,0.1,0.7,0.4,1C230.3,161.5,230.6,161.7,231,161.7z"/>
	<path class="st26" d="M233.9,162.4v-6.2h0.9v6.2H233.9z"/>
	<path class="st26" d="M237.7,162.5c-0.6,0-1.1-0.2-1.5-0.6c-0.4-0.4-0.6-0.9-0.6-1.6c0-0.7,0.2-1.2,0.6-1.6
		c0.4-0.4,0.9-0.6,1.5-0.6c0.3,0,0.5,0.1,0.8,0.2c0.3,0.1,0.5,0.3,0.6,0.5v-0.6h0.9v4.2h-0.9v-0.6c-0.2,0.2-0.4,0.4-0.6,0.5
		S238,162.5,237.7,162.5z M237.8,161.7c0.4,0,0.7-0.1,1-0.4c0.3-0.3,0.4-0.6,0.4-1c0-0.4-0.1-0.7-0.4-1c-0.3-0.3-0.6-0.4-1-0.4
		c-0.4,0-0.7,0.1-1,0.4c-0.3,0.3-0.4,0.6-0.4,1c0,0.4,0.1,0.7,0.4,1C237.1,161.5,237.4,161.7,237.8,161.7z"/>
	<path class="st26" d="M240.7,159v-0.8h0.7v-1l0.9-0.5v1.5h0.9v0.8h-0.9v1.7c0,0.4,0.1,0.6,0.2,0.7c0.1,0.1,0.4,0.2,0.7,0.2v0.9
		h-0.1c-0.6,0-1.1-0.1-1.3-0.4c-0.2-0.2-0.4-0.7-0.4-1.4V159H240.7z"/>
	<path class="st26" d="M244,157.6v-1.2h0.9v1.2H244z M244,162.4v-4.2h0.9v4.2H244z"/>
	<path class="st26" d="M245.8,162.4v-4.2h0.9v0.6c0.3-0.4,0.7-0.6,1.3-0.6c0.5,0,1,0.2,1.3,0.5c0.3,0.3,0.5,0.8,0.5,1.4v2.5h-0.9
		V160c0-0.4-0.1-0.6-0.3-0.8c-0.2-0.2-0.4-0.3-0.8-0.3c-0.3,0-0.6,0.1-0.8,0.3c-0.2,0.2-0.3,0.5-0.3,0.9v2.3H245.8z"/>
	<path class="st26" d="M252.3,162.5c-0.6,0-1-0.2-1.3-0.5c-0.3-0.3-0.5-0.8-0.5-1.4v-2.5h0.9v2.4c0,0.4,0.1,0.6,0.3,0.8
		s0.4,0.3,0.8,0.3c0.3,0,0.6-0.1,0.8-0.3c0.2-0.2,0.3-0.5,0.3-0.9v-2.3h0.9v4.2h-0.9v-0.6C253.3,162.3,252.9,162.5,252.3,162.5z"/>
	<path class="st26" d="M255.4,162.4v-4.2h0.9v0.5c0.3-0.4,0.7-0.6,1.2-0.6c0.7,0,1.1,0.3,1.4,0.8c0.3-0.5,0.8-0.8,1.4-0.8
		c0.6,0,1,0.2,1.3,0.5c0.3,0.3,0.5,0.8,0.5,1.3v2.5h-0.9v-2.5c0-0.3-0.1-0.6-0.3-0.8s-0.4-0.3-0.7-0.3c-0.3,0-0.5,0.1-0.7,0.3
		c-0.2,0.2-0.3,0.5-0.3,0.8v2.4h-0.9v-2.5c0-0.3-0.1-0.6-0.3-0.7s-0.4-0.3-0.7-0.3c-0.3,0-0.6,0.1-0.8,0.3c-0.2,0.2-0.3,0.5-0.3,0.9
		v2.4H255.4z"/>
	<path class="st26" d="M265,158.6v-0.4h0.7v-0.4c0-0.6,0.1-1,0.3-1.2c0.2-0.2,0.6-0.3,1.2-0.3h0v0.5c-0.5,0-0.8,0.1-0.9,0.2
		c-0.1,0.1-0.2,0.4-0.2,0.9v0.4h1.1v0.4h-1.1v3.8h-0.5v-3.8H265z"/>
	<path class="st26" d="M271.5,161.8c-0.4,0.4-1,0.6-1.6,0.6c-0.6,0-1.1-0.2-1.6-0.6s-0.6-1-0.6-1.6c0-0.6,0.2-1.1,0.6-1.6
		s0.9-0.6,1.6-0.6c0.6,0,1.1,0.2,1.6,0.6s0.6,1,0.6,1.6C272.1,160.9,271.9,161.4,271.5,161.8z M268.7,161.5c0.3,0.3,0.7,0.5,1.2,0.5
		c0.5,0,0.9-0.2,1.2-0.5c0.3-0.3,0.5-0.8,0.5-1.2s-0.2-0.9-0.5-1.2c-0.3-0.3-0.7-0.5-1.2-0.5c-0.5,0-0.9,0.2-1.2,0.5
		c-0.3,0.3-0.5,0.8-0.5,1.2S268.4,161.2,268.7,161.5z"/>
	<path class="st26" d="M273.2,162.4v-4.2h0.5v0.8c0.3-0.5,0.7-0.8,1.4-0.8h0.4v0.5H275c-0.4,0-0.8,0.1-1,0.4
		c-0.2,0.3-0.4,0.7-0.4,1.2v2.2H273.2z"/>
	<path class="st26" d="M277.6,162.4l-1.4-4.2h0.5l1.1,3.5l1.4-3.5h0.5l1.4,3.5l1.2-3.5h0.5l-1.4,4.2h-0.5l-1.4-3.6l-1.4,3.6H277.6z"
		/>
	<path class="st26" d="M285.5,162.5c-0.6,0-1.1-0.2-1.6-0.6c-0.4-0.4-0.6-1-0.6-1.6s0.2-1.1,0.6-1.6c0.4-0.4,0.9-0.6,1.6-0.6
		c0.3,0,0.7,0.1,1,0.3c0.3,0.2,0.6,0.4,0.7,0.7v-0.9h0.5v4.2h-0.5v-0.9c-0.2,0.3-0.4,0.5-0.7,0.7
		C286.2,162.4,285.8,162.5,285.5,162.5z M285.5,162c0.5,0,0.9-0.2,1.2-0.5s0.5-0.8,0.5-1.3c0-0.5-0.2-0.9-0.5-1.2
		c-0.3-0.3-0.8-0.5-1.2-0.5c-0.5,0-0.9,0.2-1.2,0.5c-0.3,0.3-0.5,0.8-0.5,1.2s0.2,0.9,0.5,1.2C284.6,161.9,285.1,162,285.5,162z"/>
	<path class="st26" d="M289,162.4v-4.2h0.5v0.8c0.3-0.5,0.7-0.8,1.4-0.8h0.4v0.5h-0.4c-0.4,0-0.8,0.1-1,0.4
		c-0.2,0.3-0.4,0.7-0.4,1.2v2.2H289z"/>
	<path class="st26" d="M293.9,162.5c-0.6,0-1.1-0.2-1.6-0.6c-0.4-0.4-0.6-1-0.6-1.6s0.2-1.1,0.6-1.6c0.4-0.4,0.9-0.6,1.6-0.6
		c0.3,0,0.7,0.1,1,0.3c0.3,0.2,0.6,0.4,0.7,0.7v-2.8h0.5v6.2h-0.5v-0.9c-0.2,0.3-0.4,0.5-0.7,0.7
		C294.6,162.4,294.2,162.5,293.9,162.5z M293.9,162c0.5,0,0.9-0.2,1.2-0.5s0.5-0.8,0.5-1.3c0-0.5-0.2-0.9-0.5-1.2
		c-0.3-0.3-0.8-0.5-1.2-0.5c-0.5,0-0.9,0.2-1.2,0.5c-0.3,0.3-0.5,0.8-0.5,1.2s0.2,0.9,0.5,1.2C293,161.9,293.4,162,293.9,162z"/>
	<path class="st26" d="M297.4,157.4v-1.2h0.5v1.2H297.4z M297.4,162.4v-4.2h0.5v4.2H297.4z"/>
	<path class="st26" d="M299.1,162.4v-4.2h0.5v0.8c0.1-0.3,0.4-0.5,0.6-0.6c0.3-0.2,0.6-0.2,0.9-0.2c0.6,0,1,0.2,1.4,0.5
		s0.5,0.8,0.5,1.4v2.4h-0.5V160c0-0.5-0.1-0.8-0.4-1.1c-0.3-0.3-0.6-0.4-1.1-0.4c-0.4,0-0.8,0.1-1.1,0.4s-0.4,0.7-0.4,1.1v2.4H299.1
		z"/>
	<path class="st26" d="M306.2,162.5c-0.6,0-1.1-0.2-1.6-0.6c-0.4-0.4-0.6-1-0.6-1.6s0.2-1.1,0.6-1.6c0.4-0.4,0.9-0.6,1.6-0.6
		c0.3,0,0.7,0.1,1,0.3c0.3,0.2,0.6,0.4,0.7,0.7v-0.9h0.5v4.2c0,0.7-0.2,1.2-0.6,1.6c-0.4,0.4-0.9,0.6-1.5,0.6c-1,0-1.7-0.4-2-1.2
		l0.5-0.2c0.2,0.6,0.8,0.9,1.5,0.9c0.5,0,0.9-0.2,1.2-0.5c0.3-0.3,0.4-0.7,0.4-1.2v-0.8c-0.2,0.3-0.4,0.5-0.7,0.7
		S306.5,162.5,306.2,162.5z M306.2,162c0.5,0,0.9-0.2,1.2-0.5s0.5-0.8,0.5-1.3c0-0.5-0.2-0.9-0.5-1.2c-0.3-0.3-0.8-0.5-1.2-0.5
		c-0.5,0-0.9,0.2-1.2,0.5c-0.3,0.3-0.5,0.8-0.5,1.2s0.2,0.9,0.5,1.2C305.3,161.9,305.7,162,306.2,162z"/>
	<path class="st26" d="M231.1,174.7c-0.6,0-1.1-0.2-1.4-0.6v2.5h-0.9v-6.2h0.9v0.6c0.2-0.2,0.4-0.4,0.6-0.5c0.3-0.1,0.5-0.2,0.8-0.2
		c0.6,0,1.1,0.2,1.5,0.6c0.4,0.4,0.6,0.9,0.6,1.6c0,0.7-0.2,1.2-0.6,1.6S231.7,174.7,231.1,174.7z M231,173.9c0.4,0,0.7-0.1,1-0.4
		c0.3-0.3,0.4-0.6,0.4-1c0-0.4-0.1-0.7-0.4-1c-0.3-0.3-0.6-0.4-1-0.4c-0.4,0-0.7,0.1-1,0.4c-0.3,0.3-0.4,0.6-0.4,1
		c0,0.4,0.1,0.7,0.4,1C230.3,173.7,230.6,173.9,231,173.9z"/>
	<path class="st26" d="M233.9,174.6v-6.2h0.9v6.2H233.9z"/>
	<path class="st26" d="M237.7,174.7c-0.6,0-1.1-0.2-1.5-0.6c-0.4-0.4-0.6-0.9-0.6-1.6c0-0.7,0.2-1.2,0.6-1.6
		c0.4-0.4,0.9-0.6,1.5-0.6c0.3,0,0.5,0.1,0.8,0.2c0.3,0.1,0.5,0.3,0.6,0.5v-0.6h0.9v4.2h-0.9V174c-0.2,0.2-0.4,0.4-0.6,0.5
		S238,174.7,237.7,174.7z M237.8,173.9c0.4,0,0.7-0.1,1-0.4c0.3-0.3,0.4-0.6,0.4-1c0-0.4-0.1-0.7-0.4-1c-0.3-0.3-0.6-0.4-1-0.4
		c-0.4,0-0.7,0.1-1,0.4c-0.3,0.3-0.4,0.6-0.4,1c0,0.4,0.1,0.7,0.4,1C237.1,173.7,237.4,173.9,237.8,173.9z"/>
	<path class="st26" d="M240.7,171.2v-0.8h0.7v-1l0.9-0.5v1.5h0.9v0.8h-0.9v1.7c0,0.4,0.1,0.6,0.2,0.7c0.1,0.1,0.4,0.2,0.7,0.2v0.9
		h-0.1c-0.6,0-1.1-0.1-1.3-0.4c-0.2-0.2-0.4-0.7-0.4-1.4v-1.7H240.7z"/>
	<path class="st26" d="M244,169.8v-1.2h0.9v1.2H244z M244,174.6v-4.2h0.9v4.2H244z"/>
	<path class="st26" d="M245.8,174.6v-4.2h0.9v0.6c0.3-0.4,0.7-0.6,1.3-0.6c0.5,0,1,0.2,1.3,0.5c0.3,0.3,0.5,0.8,0.5,1.4v2.5h-0.9
		v-2.4c0-0.4-0.1-0.6-0.3-0.8c-0.2-0.2-0.4-0.3-0.8-0.3c-0.3,0-0.6,0.1-0.8,0.3c-0.2,0.2-0.3,0.5-0.3,0.9v2.3H245.8z"/>
	<path class="st26" d="M252.3,174.7c-0.6,0-1-0.2-1.3-0.5c-0.3-0.3-0.5-0.8-0.5-1.4v-2.5h0.9v2.4c0,0.4,0.1,0.6,0.3,0.8
		s0.4,0.3,0.8,0.3c0.3,0,0.6-0.1,0.8-0.3c0.2-0.2,0.3-0.5,0.3-0.9v-2.3h0.9v4.2h-0.9V174C253.3,174.5,252.9,174.7,252.3,174.7z"/>
	<path class="st26" d="M255.4,174.6v-4.2h0.9v0.5c0.3-0.4,0.7-0.6,1.2-0.6c0.7,0,1.1,0.3,1.4,0.8c0.3-0.5,0.8-0.8,1.4-0.8
		c0.6,0,1,0.2,1.3,0.5c0.3,0.3,0.5,0.8,0.5,1.3v2.5h-0.9v-2.5c0-0.3-0.1-0.6-0.3-0.8s-0.4-0.3-0.7-0.3c-0.3,0-0.5,0.1-0.7,0.3
		c-0.2,0.2-0.3,0.5-0.3,0.8v2.4h-0.9v-2.5c0-0.3-0.1-0.6-0.3-0.7s-0.4-0.3-0.7-0.3c-0.3,0-0.6,0.1-0.8,0.3c-0.2,0.2-0.3,0.5-0.3,0.9
		v2.4H255.4z"/>
	<path class="st26" d="M265.3,169.6v-1.2h0.5v1.2H265.3z M265.3,174.6v-4.2h0.5v4.2H265.3z"/>
	<path class="st26" d="M267,174.6v-4.2h0.5v0.8c0.1-0.3,0.4-0.5,0.6-0.6c0.3-0.2,0.6-0.2,0.9-0.2c0.6,0,1,0.2,1.4,0.5
		s0.5,0.8,0.5,1.4v2.4h-0.5v-2.4c0-0.5-0.1-0.8-0.4-1.1c-0.3-0.3-0.6-0.4-1.1-0.4c-0.4,0-0.8,0.1-1.1,0.4s-0.4,0.7-0.4,1.1v2.4H267z
		"/>
	<path class="st26" d="M271.6,170.8v-0.4h0.7v-1l0.5-0.3v1.3h1.1v0.4h-1.1v2.3c0,0.5,0.1,0.8,0.2,0.9c0.1,0.1,0.4,0.2,0.9,0.2v0.5
		h-0.1c-0.6,0-1-0.1-1.2-0.3s-0.3-0.6-0.3-1.2v-2.3H271.6z"/>
	<path class="st26" d="M276.8,174.7c-0.7,0-1.2-0.2-1.6-0.6s-0.6-0.9-0.6-1.6s0.2-1.2,0.6-1.6c0.4-0.4,0.9-0.6,1.6-0.6
		c0.6,0,1.1,0.2,1.6,0.6c0.4,0.4,0.6,0.9,0.6,1.6v0.2H275c0,0.5,0.2,0.9,0.5,1.2c0.3,0.3,0.7,0.5,1.2,0.5c0.8,0,1.3-0.4,1.6-1.1
		l0.4,0.2C278.4,174.3,277.7,174.7,276.8,174.7z M276.7,170.7c-0.4,0-0.8,0.1-1.1,0.4c-0.3,0.3-0.5,0.6-0.6,1.1h3.4
		c0-0.5-0.2-0.8-0.5-1.1C277.6,170.8,277.2,170.7,276.7,170.7z"/>
	<path class="st26" d="M282,174.7c-0.6,0-1.1-0.2-1.6-0.6c-0.4-0.4-0.6-1-0.6-1.6s0.2-1.1,0.6-1.6c0.4-0.4,0.9-0.6,1.6-0.6
		c0.3,0,0.7,0.1,1,0.3c0.3,0.2,0.6,0.4,0.7,0.7v-0.9h0.5v4.2c0,0.7-0.2,1.2-0.6,1.6c-0.4,0.4-0.9,0.6-1.5,0.6c-1,0-1.7-0.4-2-1.2
		l0.5-0.2c0.2,0.6,0.8,0.9,1.5,0.9c0.5,0,0.9-0.2,1.2-0.5c0.3-0.3,0.4-0.7,0.4-1.2v-0.8c-0.2,0.3-0.4,0.5-0.7,0.7
		S282.3,174.7,282,174.7z M282,174.2c0.5,0,0.9-0.2,1.2-0.5s0.5-0.8,0.5-1.3c0-0.5-0.2-0.9-0.5-1.2c-0.3-0.3-0.8-0.5-1.2-0.5
		c-0.5,0-0.9,0.2-1.2,0.5c-0.3,0.3-0.5,0.8-0.5,1.2s0.2,0.9,0.5,1.2C281.1,174.1,281.5,174.2,282,174.2z"/>
	<path class="st26" d="M285.4,174.6v-4.2h0.5v0.8c0.3-0.5,0.7-0.8,1.4-0.8h0.4v0.5h-0.4c-0.4,0-0.8,0.1-1,0.4
		c-0.2,0.3-0.4,0.7-0.4,1.2v2.2H285.4z"/>
	<path class="st26" d="M290.3,174.7c-0.6,0-1.1-0.2-1.6-0.6c-0.4-0.4-0.6-1-0.6-1.6s0.2-1.1,0.6-1.6c0.4-0.4,0.9-0.6,1.6-0.6
		c0.3,0,0.7,0.1,1,0.3c0.3,0.2,0.6,0.4,0.7,0.7v-0.9h0.5v4.2h-0.5v-0.9c-0.2,0.3-0.4,0.5-0.7,0.7C291,174.6,290.7,174.7,290.3,174.7
		z M290.4,174.2c0.5,0,0.9-0.2,1.2-0.5s0.5-0.8,0.5-1.3c0-0.5-0.2-0.9-0.5-1.2c-0.3-0.3-0.8-0.5-1.2-0.5c-0.5,0-0.9,0.2-1.2,0.5
		c-0.3,0.3-0.5,0.8-0.5,1.2s0.2,0.9,0.5,1.2C289.5,174.1,289.9,174.2,290.4,174.2z"/>
	<path class="st26" d="M293.4,170.8v-0.4h0.7v-1l0.5-0.3v1.3h1.1v0.4h-1.1v2.3c0,0.5,0.1,0.8,0.2,0.9c0.1,0.1,0.4,0.2,0.9,0.2v0.5
		h-0.1c-0.6,0-1-0.1-1.2-0.3s-0.3-0.6-0.3-1.2v-2.3H293.4z"/>
	<path class="st26" d="M296.7,169.6v-1.2h0.5v1.2H296.7z M296.7,174.6v-4.2h0.5v4.2H296.7z"/>
	<path class="st26" d="M302,174c-0.4,0.4-1,0.6-1.6,0.6c-0.6,0-1.1-0.2-1.6-0.6s-0.6-1-0.6-1.6c0-0.6,0.2-1.1,0.6-1.6
		s0.9-0.6,1.6-0.6c0.6,0,1.1,0.2,1.6,0.6s0.6,1,0.6,1.6C302.6,173.1,302.4,173.6,302,174z M299.2,173.7c0.3,0.3,0.7,0.5,1.2,0.5
		c0.5,0,0.9-0.2,1.2-0.5c0.3-0.3,0.5-0.8,0.5-1.2s-0.2-0.9-0.5-1.2c-0.3-0.3-0.7-0.5-1.2-0.5c-0.5,0-0.9,0.2-1.2,0.5
		c-0.3,0.3-0.5,0.8-0.5,1.2S298.9,173.4,299.2,173.7z"/>
	<path class="st26" d="M303.7,174.6v-4.2h0.5v0.8c0.1-0.3,0.4-0.5,0.6-0.6c0.3-0.2,0.6-0.2,0.9-0.2c0.6,0,1,0.2,1.4,0.5
		s0.5,0.8,0.5,1.4v2.4h-0.5v-2.4c0-0.5-0.1-0.8-0.4-1.1c-0.3-0.3-0.6-0.4-1.1-0.4c-0.4,0-0.8,0.1-1.1,0.4s-0.4,0.7-0.4,1.1v2.4
		H303.7z"/>
	<path class="st26" d="M230.7,186.9c-0.6,0-1.1-0.2-1.5-0.6c-0.4-0.4-0.6-0.9-0.6-1.6c0-0.7,0.2-1.2,0.6-1.6
		c0.4-0.4,0.9-0.6,1.5-0.6c0.3,0,0.5,0.1,0.8,0.2c0.2,0.1,0.5,0.3,0.6,0.5v-0.6h0.9v4.1c0,0.6-0.2,1.2-0.6,1.6
		c-0.4,0.4-0.9,0.6-1.6,0.6c-0.5,0-0.9-0.1-1.3-0.3c-0.4-0.2-0.6-0.5-0.8-0.9l0.8-0.4c0.2,0.5,0.7,0.8,1.3,0.8
		c0.4,0,0.7-0.1,0.9-0.4c0.2-0.2,0.3-0.6,0.3-0.9v-0.5c-0.2,0.2-0.4,0.4-0.6,0.5C231.3,186.8,231,186.9,230.7,186.9z M230.9,186.1
		c0.4,0,0.7-0.1,1-0.4c0.3-0.3,0.4-0.6,0.4-1c0-0.4-0.1-0.7-0.4-1c-0.3-0.3-0.6-0.4-1-0.4c-0.4,0-0.7,0.1-1,0.4
		c-0.3,0.3-0.4,0.6-0.4,1c0,0.4,0.1,0.7,0.4,1C230.2,185.9,230.5,186.1,230.9,186.1z"/>
	<path class="st26" d="M237.6,186.2c-0.4,0.4-1,0.6-1.6,0.6c-0.6,0-1.1-0.2-1.6-0.6s-0.6-1-0.6-1.6c0-0.6,0.2-1.1,0.6-1.6
		s0.9-0.6,1.6-0.6c0.6,0,1.1,0.2,1.6,0.6s0.6,1,0.6,1.6C238.2,185.3,238,185.8,237.6,186.2z M235.1,185.6c0.3,0.3,0.6,0.4,0.9,0.4
		c0.4,0,0.7-0.1,0.9-0.4c0.3-0.3,0.4-0.6,0.4-1s-0.1-0.7-0.4-1c-0.3-0.3-0.6-0.4-0.9-0.4c-0.4,0-0.7,0.1-0.9,0.4
		c-0.3,0.3-0.4,0.6-0.4,1S234.8,185.4,235.1,185.6z"/>
	<path class="st26" d="M238.9,186.8v-6.2h0.9v6.2H238.9z"/>
	<path class="st26" d="M242.7,186.9c-0.6,0-1.1-0.2-1.5-0.6c-0.4-0.4-0.6-0.9-0.6-1.6c0-0.7,0.2-1.2,0.6-1.6
		c0.4-0.4,0.9-0.6,1.5-0.6c0.3,0,0.5,0.1,0.8,0.2c0.3,0.1,0.5,0.3,0.6,0.5v-2.5h0.9v6.2h-0.9v-0.6c-0.2,0.2-0.4,0.4-0.6,0.5
		S243,186.9,242.7,186.9z M242.8,186.1c0.4,0,0.7-0.1,1-0.4c0.3-0.3,0.4-0.6,0.4-1c0-0.4-0.1-0.7-0.4-1c-0.3-0.3-0.6-0.4-1-0.4
		c-0.4,0-0.7,0.1-1,0.4c-0.3,0.3-0.4,0.6-0.4,1c0,0.4,0.1,0.7,0.4,1C242.1,185.9,242.4,186.1,242.8,186.1z"/>
	<path class="st26" d="M250.2,186.9c-0.6,0-1.1-0.2-1.6-0.6c-0.4-0.4-0.6-1-0.6-1.6s0.2-1.1,0.6-1.6c0.4-0.4,0.9-0.6,1.6-0.6
		c0.3,0,0.7,0.1,1,0.3c0.3,0.2,0.6,0.4,0.7,0.7v-0.9h0.5v4.2c0,0.7-0.2,1.2-0.6,1.6c-0.4,0.4-0.9,0.6-1.5,0.6c-1,0-1.7-0.4-2-1.2
		l0.5-0.2c0.2,0.6,0.8,0.9,1.5,0.9c0.5,0,0.9-0.2,1.2-0.5c0.3-0.3,0.4-0.7,0.4-1.2v-0.8c-0.2,0.3-0.4,0.5-0.7,0.7
		S250.5,186.9,250.2,186.9z M250.2,186.4c0.5,0,0.9-0.2,1.2-0.5s0.5-0.8,0.5-1.3c0-0.5-0.2-0.9-0.5-1.2c-0.3-0.3-0.8-0.5-1.2-0.5
		c-0.5,0-0.9,0.2-1.2,0.5c-0.3,0.3-0.5,0.8-0.5,1.2s0.2,0.9,0.5,1.2C249.3,186.3,249.7,186.4,250.2,186.4z"/>
	<path class="st26" d="M253.6,186.8v-6.2h0.5v6.2H253.6z"/>
	<path class="st26" d="M258.9,186.2c-0.4,0.4-1,0.6-1.6,0.6c-0.6,0-1.1-0.2-1.6-0.6s-0.6-1-0.6-1.6c0-0.6,0.2-1.1,0.6-1.6
		s0.9-0.6,1.6-0.6c0.6,0,1.1,0.2,1.6,0.6s0.6,1,0.6,1.6C259.5,185.3,259.3,185.8,258.9,186.2z M256.1,185.9c0.3,0.3,0.7,0.5,1.2,0.5
		c0.5,0,0.9-0.2,1.2-0.5c0.3-0.3,0.5-0.8,0.5-1.2s-0.2-0.9-0.5-1.2c-0.3-0.3-0.7-0.5-1.2-0.5c-0.5,0-0.9,0.2-1.2,0.5
		c-0.3,0.3-0.5,0.8-0.5,1.2S255.8,185.6,256.1,185.9z"/>
	<path class="st26" d="M262.7,186.9c-0.3,0-0.7-0.1-1-0.3s-0.6-0.4-0.7-0.7v0.9h-0.5v-6.2h0.5v2.8c0.2-0.3,0.4-0.5,0.7-0.7
		c0.3-0.2,0.6-0.3,1-0.3c0.6,0,1.1,0.2,1.6,0.6c0.4,0.4,0.6,1,0.6,1.6s-0.2,1.1-0.6,1.6C263.9,186.7,263.4,186.9,262.7,186.9z
		 M262.7,186.4c0.5,0,0.9-0.2,1.2-0.5c0.3-0.3,0.5-0.8,0.5-1.2s-0.2-0.9-0.5-1.2c-0.3-0.3-0.7-0.5-1.2-0.5c-0.5,0-0.9,0.2-1.2,0.5
		s-0.5,0.8-0.5,1.2c0,0.5,0.2,0.9,0.5,1.3S262.2,186.4,262.7,186.4z"/>
	<path class="st26" d="M268,186.9c-0.6,0-1.1-0.2-1.6-0.6c-0.4-0.4-0.6-1-0.6-1.6s0.2-1.1,0.6-1.6c0.4-0.4,0.9-0.6,1.6-0.6
		c0.3,0,0.7,0.1,1,0.3c0.3,0.2,0.6,0.4,0.7,0.7v-0.9h0.5v4.2h-0.5v-0.9c-0.2,0.3-0.4,0.5-0.7,0.7C268.7,186.8,268.3,186.9,268,186.9
		z M268,186.4c0.5,0,0.9-0.2,1.2-0.5s0.5-0.8,0.5-1.3c0-0.5-0.2-0.9-0.5-1.2c-0.3-0.3-0.8-0.5-1.2-0.5c-0.5,0-0.9,0.2-1.2,0.5
		c-0.3,0.3-0.5,0.8-0.5,1.2s0.2,0.9,0.5,1.2C267.1,186.3,267.6,186.4,268,186.4z"/>
	<path class="st26" d="M271.4,186.8v-6.2h0.5v6.2H271.4z"/>
	<path class="st26" d="M275.3,186.8v-4.2h0.5v0.8c0.3-0.5,0.7-0.8,1.4-0.8h0.4v0.5h-0.4c-0.4,0-0.8,0.1-1,0.4
		c-0.2,0.3-0.4,0.7-0.4,1.2v2.2H275.3z"/>
	<path class="st26" d="M281.8,186.2c-0.4,0.4-1,0.6-1.6,0.6c-0.6,0-1.1-0.2-1.6-0.6s-0.6-1-0.6-1.6c0-0.6,0.2-1.1,0.6-1.6
		s0.9-0.6,1.6-0.6c0.6,0,1.1,0.2,1.6,0.6s0.6,1,0.6,1.6C282.4,185.3,282.2,185.8,281.8,186.2z M279,185.9c0.3,0.3,0.7,0.5,1.2,0.5
		c0.5,0,0.9-0.2,1.2-0.5c0.3-0.3,0.5-0.8,0.5-1.2s-0.2-0.9-0.5-1.2c-0.3-0.3-0.7-0.5-1.2-0.5c-0.5,0-0.9,0.2-1.2,0.5
		c-0.3,0.3-0.5,0.8-0.5,1.2S278.7,185.6,279,185.9z"/>
	<path class="st26" d="M283.5,186.8v-6.2h0.5v6.2H283.5z"/>
	<path class="st26" d="M285.3,186.8v-6.2h0.5v6.2H285.3z"/>
	<path class="st26" d="M290.6,186.2c-0.4,0.4-1,0.6-1.6,0.6c-0.6,0-1.1-0.2-1.6-0.6s-0.6-1-0.6-1.6c0-0.6,0.2-1.1,0.6-1.6
		s0.9-0.6,1.6-0.6c0.6,0,1.1,0.2,1.6,0.6s0.6,1,0.6,1.6C291.2,185.3,291,185.8,290.6,186.2z M287.8,185.9c0.3,0.3,0.7,0.5,1.2,0.5
		c0.5,0,0.9-0.2,1.2-0.5c0.3-0.3,0.5-0.8,0.5-1.2s-0.2-0.9-0.5-1.2c-0.3-0.3-0.7-0.5-1.2-0.5c-0.5,0-0.9,0.2-1.2,0.5
		c-0.3,0.3-0.5,0.8-0.5,1.2S287.4,185.6,287.8,185.9z"/>
	<path class="st26" d="M294.1,186.9c-0.6,0-1.1-0.2-1.4-0.5s-0.5-0.8-0.5-1.4v-2.4h0.5v2.4c0,0.5,0.1,0.8,0.4,1.1
		c0.3,0.3,0.6,0.4,1.1,0.4c0.4,0,0.8-0.1,1.1-0.4s0.4-0.7,0.4-1.1v-2.4h0.5v4.2h-0.5V186c-0.1,0.3-0.4,0.5-0.6,0.6
		C294.8,186.8,294.4,186.9,294.1,186.9z"/>
	<path class="st26" d="M297,183v-0.4h0.7v-1l0.5-0.3v1.3h1.1v0.4h-1.1v2.3c0,0.5,0.1,0.8,0.2,0.9c0.1,0.1,0.4,0.2,0.9,0.2v0.5h-0.1
		c-0.6,0-1-0.1-1.2-0.3s-0.3-0.6-0.3-1.2V183H297z"/>
	<path class="st26" d="M301.7,186.9c-0.4,0-0.7-0.1-1-0.2c-0.3-0.1-0.5-0.3-0.7-0.6l0.4-0.3c0.3,0.5,0.8,0.7,1.3,0.7
		c0.4,0,0.6-0.1,0.8-0.2c0.2-0.2,0.3-0.4,0.3-0.6c0-0.1,0-0.2-0.1-0.3s-0.1-0.2-0.3-0.2c-0.1-0.1-0.2-0.1-0.3-0.1s-0.2-0.1-0.4-0.1
		c-0.1,0-0.1,0-0.1,0c-0.2-0.1-0.4-0.1-0.5-0.1c-0.1,0-0.3-0.1-0.4-0.2c-0.2-0.1-0.3-0.2-0.3-0.3c-0.1-0.1-0.1-0.3-0.1-0.5
		c0-0.3,0.1-0.6,0.4-0.8c0.3-0.2,0.6-0.3,1.1-0.3c0.6,0,1.2,0.2,1.5,0.6l-0.4,0.3c-0.3-0.3-0.7-0.5-1.2-0.5c-0.3,0-0.6,0.1-0.7,0.2
		s-0.3,0.3-0.3,0.5c0,0.1,0,0.2,0.1,0.3c0,0.1,0.1,0.1,0.2,0.2c0.1,0,0.2,0.1,0.3,0.1s0.2,0.1,0.3,0.1c0.1,0,0.2,0,0.4,0.1
		c0.2,0.1,0.4,0.1,0.5,0.2c0.1,0,0.3,0.1,0.4,0.2c0.2,0.1,0.3,0.2,0.4,0.3s0.1,0.3,0.1,0.5c0,0.3-0.1,0.6-0.4,0.9
		C302.6,186.8,302.2,186.9,301.7,186.9z"/>
</g>
</svg>
