<?xml version="1.0" encoding="utf-8"?>
<!-- Generator: Adobe Illustrator 21.1.0, SVG Export Plug-In . SVG Version: 6.00 Build 0)  -->
<svg version="1.1" id="Layer_1" xmlns="http://www.w3.org/2000/svg" xmlns:xlink="http://www.w3.org/1999/xlink" x="0px" y="0px"
	 viewBox="0 0 365.7 214" style="enable-background:new 0 0 365.7 214;" xml:space="preserve">

<style type="text/css">
	.st0{fill:#371EE1;}
	.st1{fill:#FFFFFF;}
	.st2{font-family:'Sharp Sans No1 Semibold';}
	.st3{font-size:8.1228px;}
	.st4{font-family:'Sharp Sans No1 Book';}
	.st5{fill:none;stroke:#FFFFFF;stroke-width:0.541;stroke-miterlimit:10;}
	.st6{clip-path:url(#SVGID_2_);fill:#FFFFFF;}
	.st7{fill:url(#SVGID_3_);}
	.st8{fill:url(#SVGID_4_);}
	.st9{fill:url(#SVGID_5_);}
	.st10{fill:url(#SVGID_6_);}
</style>
<rect x="172.2" y="65.1" class="st0" width="191.8" height="146.3"/>
<text transform="matrix(1 0 0 1 228.1445 137.737)"><tspan x="0" y="0" class="st1 st2 st3">p</tspan><tspan x="4.7" y="0" class="st1 st2 st3">l</tspan><tspan x="6.7" y="0" class="st1 st2 st3">a</tspan><tspan x="10.5" y="0" class="st1 st2 st3">t</tspan><tspan x="13.2" y="0" class="st1 st2 st3">i</tspan><tspan x="15.2" y="0" class="st1 st2 st3">n</tspan><tspan x="19.7" y="0" class="st1 st2 st3">u</tspan><tspan x="24.3" y="0" class="st1 st2 st3">m</tspan></text>
<text transform="matrix(1 0 0 1 261.0879 137.737)"><tspan x="0" y="0" class="st1 st4 st3"> a</tspan><tspan x="5.6" y="0" class="st1 st4 st3">cc</tspan><tspan x="12.8" y="0" class="st1 st4 st3">o</tspan><tspan x="17.3" y="0" class="st1 st4 st3">u</tspan><tspan x="21.8" y="0" class="st1 st4 st3">n</tspan><tspan x="26.1" y="0" class="st1 st4 st3">t</tspan><tspan x="28.7" y="0" class="st1 st4 st3">i</tspan><tspan x="30.6" y="0" class="st1 st4 st3">n</tspan><tspan x="35.1" y="0" class="st1 st4 st3">g</tspan></text>
<text transform="matrix(1 0 0 1 228.1445 149.5173)"><tspan x="0" y="0" class="st1 st2 st3">p</tspan><tspan x="4.7" y="0" class="st1 st2 st3">l</tspan><tspan x="6.7" y="0" class="st1 st2 st3">a</tspan><tspan x="10.5" y="0" class="st1 st2 st3">t</tspan><tspan x="13.2" y="0" class="st1 st2 st3">i</tspan><tspan x="15.2" y="0" class="st1 st2 st3">n</tspan><tspan x="19.7" y="0" class="st1 st2 st3">u</tspan><tspan x="24.3" y="0" class="st1 st2 st3">m</tspan></text>
<text transform="matrix(1 0 0 1 261.0879 149.5173)"><tspan x="0" y="0" class="st1 st4 st3"> </tspan><tspan x="1.7" y="0" class="st1 st4 st3">c</tspan><tspan x="5.3" y="0" class="st1 st4 st3">u</tspan><tspan x="9.8" y="0" class="st1 st4 st3">s</tspan><tspan x="13.1" y="0" class="st1 st4 st3">t</tspan><tspan x="15.5" y="0" class="st1 st4 st3">oms</tspan></text>
<text transform="matrix(1 0 0 1 228.1445 161.2966)"><tspan x="0" y="0" class="st1 st2 st3">go</tspan><tspan x="9.1" y="0" class="st1 st2 st3">l</tspan><tspan x="11" y="0" class="st1 st2 st3">d</tspan></text>
<text transform="matrix(1 0 0 1 244.6396 161.2966)"><tspan x="0" y="0" class="st1 st4 st3"> </tspan><tspan x="1.7" y="0" class="st1 st4 st3">g</tspan><tspan x="6.3" y="0" class="st1 st4 st3">lo</tspan><tspan x="12.7" y="0" class="st1 st4 st3">b</tspan><tspan x="17.3" y="0" class="st1 st4 st3">a</tspan><tspan x="21.2" y="0" class="st1 st4 st3">l </tspan><tspan x="24.9" y="0" class="st1 st4 st3">r</tspan><tspan x="27.2" y="0" class="st1 st4 st3">o</tspan><tspan x="31.7" y="0" class="st1 st4 st3">l</tspan><tspan x="33.6" y="0" class="st1 st4 st3">l</tspan><tspan x="35.5" y="0" class="st1 st4 st3">o</tspan><tspan x="40" y="0" class="st1 st4 st3">u</tspan><tspan x="44.4" y="0" class="st1 st4 st3">t</tspan><tspan x="47.2" y="0" class="st1 st4 st3">s</tspan></text>
<text transform="matrix(1 0 0 1 228.1445 173.0788)"><tspan x="0" y="0" class="st1 st2 st3">go</tspan><tspan x="9.1" y="0" class="st1 st2 st3">l</tspan><tspan x="11" y="0" class="st1 st2 st3">d</tspan></text>
<text transform="matrix(1 0 0 1 244.6396 173.0788)"><tspan x="0" y="0" class="st1 st4 st3"> </tspan><tspan x="1.7" y="0" class="st1 st4 st3">f</tspan><tspan x="3.8" y="0" class="st1 st4 st3">o</tspan><tspan x="8.3" y="0" class="st1 st4 st3">r</tspan><tspan x="11" y="0" class="st1 st4 st3">w</tspan><tspan x="16.7" y="0" class="st1 st4 st3">a</tspan><tspan x="20.7" y="0" class="st1 st4 st3">r</tspan><tspan x="23" y="0" class="st1 st4 st3">di</tspan><tspan x="29.6" y="0" class="st1 st4 st3">n</tspan><tspan x="34.1" y="0" class="st1 st4 st3">g</tspan></text>
<path class="st1" d="M230.5,184.9c-0.3,0-0.6-0.1-0.8-0.2c-0.3-0.1-0.5-0.3-0.7-0.5c-0.2-0.2-0.3-0.4-0.4-0.7
	c-0.1-0.3-0.2-0.5-0.2-0.8c0-0.3,0.1-0.6,0.2-0.8c0.1-0.3,0.3-0.5,0.5-0.7c0.2-0.2,0.4-0.3,0.7-0.4c0.3-0.1,0.5-0.2,0.8-0.2
	c0.5,0,0.9,0.1,1.2,0.3c0.3,0.2,0.6,0.5,0.7,0.9l-0.8,0.3c-0.1-0.2-0.3-0.4-0.5-0.6c-0.2-0.1-0.4-0.2-0.7-0.2c-0.2,0-0.3,0-0.5,0.1
	c-0.2,0.1-0.3,0.2-0.4,0.3c-0.1,0.1-0.2,0.3-0.3,0.4c-0.1,0.2-0.1,0.3-0.1,0.5c0,0.2,0,0.3,0.1,0.5c0.1,0.2,0.2,0.3,0.3,0.4
	c0.1,0.1,0.2,0.2,0.4,0.3c0.2,0.1,0.3,0.1,0.5,0.1c0.3,0,0.5-0.1,0.7-0.2c0.2-0.2,0.3-0.3,0.4-0.6l0.8,0.3c-0.2,0.4-0.4,0.7-0.7,0.9
	C231.4,184.8,231,184.9,230.5,184.9z M235.1,184.9c-0.3,0-0.6-0.1-0.9-0.2c-0.3-0.1-0.5-0.3-0.7-0.4c-0.2-0.2-0.3-0.4-0.4-0.7
	c-0.1-0.3-0.2-0.5-0.2-0.8c0-0.3,0.1-0.6,0.2-0.8c0.1-0.3,0.3-0.5,0.4-0.7c0.2-0.2,0.4-0.3,0.7-0.5c0.3-0.1,0.5-0.2,0.8-0.2
	c0.3,0,0.6,0.1,0.8,0.2c0.3,0.1,0.5,0.2,0.7,0.4c0.2,0.2,0.3,0.4,0.4,0.7c0.1,0.3,0.2,0.5,0.2,0.8v0.3h-3.4c0.1,0.3,0.2,0.6,0.4,0.8
	c0.2,0.2,0.5,0.3,0.9,0.3c0.3,0,0.5-0.1,0.7-0.2c0.2-0.1,0.4-0.3,0.5-0.5l0.7,0.4c-0.2,0.3-0.4,0.6-0.7,0.8
	C235.9,184.8,235.5,184.9,235.1,184.9z M235,181.5c-0.3,0-0.6,0.1-0.8,0.3c-0.2,0.2-0.4,0.4-0.5,0.7h2.4c-0.1-0.3-0.2-0.5-0.4-0.7
	C235.6,181.6,235.4,181.5,235,181.5z M237.9,180.8h0.9v0.6c0.1-0.2,0.3-0.4,0.5-0.5c0.2-0.1,0.4-0.2,0.7-0.2h0.4v0.8h-0.5
	c-0.4,0-0.6,0.1-0.8,0.3c-0.2,0.2-0.2,0.5-0.2,0.9v2h-0.9V180.8z M240.8,180.8h0.7v-1l0.9-0.5v1.4h0.9v0.8h-0.9v1.6
	c0,0.2,0,0.3,0,0.4c0,0.1,0.1,0.2,0.1,0.3c0.1,0.1,0.1,0.1,0.3,0.1c0.1,0,0.3,0,0.5,0v0.8h-0.1c-0.3,0-0.6,0-0.8-0.1
	c-0.2-0.1-0.4-0.1-0.5-0.3c-0.1-0.1-0.2-0.3-0.3-0.5c-0.1-0.2-0.1-0.5-0.1-0.8v-1.6h-0.7V180.8z M243.8,179.6c0-0.2,0.1-0.3,0.2-0.4
	c0.1-0.1,0.2-0.2,0.4-0.2c0.2,0,0.3,0.1,0.4,0.2c0.1,0.1,0.2,0.2,0.2,0.4c0,0.2-0.1,0.3-0.2,0.4c-0.1,0.1-0.2,0.2-0.4,0.2
	c-0.2,0-0.3-0.1-0.4-0.2C243.8,179.9,243.8,179.8,243.8,179.6z M243.9,180.8h0.9v4.1h-0.9V180.8z M245.4,180.8h0.7v-0.2
	c0-0.3,0-0.6,0.1-0.8c0.1-0.2,0.1-0.4,0.3-0.5c0.1-0.1,0.3-0.2,0.5-0.3c0.2-0.1,0.5-0.1,0.8-0.1h0.1v0.8c-0.2,0-0.3,0-0.5,0
	c-0.1,0-0.2,0.1-0.3,0.1c-0.1,0.1-0.1,0.1-0.1,0.3c0,0.1,0,0.3,0,0.4v0.2h0.9v0.8H247v3.3h-0.9v-3.3h-0.7V180.8z M248.3,179.6
	c0-0.2,0.1-0.3,0.2-0.4c0.1-0.1,0.2-0.2,0.4-0.2c0.2,0,0.3,0.1,0.4,0.2c0.1,0.1,0.2,0.2,0.2,0.4c0,0.2-0.1,0.3-0.2,0.4
	c-0.1,0.1-0.2,0.2-0.4,0.2c-0.2,0-0.3-0.1-0.4-0.2C248.4,179.9,248.3,179.8,248.3,179.6z M248.5,180.8h0.9v4.1h-0.9V180.8z
	 M252.2,184.9c-0.3,0-0.6-0.1-0.9-0.2c-0.3-0.1-0.5-0.3-0.7-0.4c-0.2-0.2-0.3-0.4-0.4-0.7c-0.1-0.3-0.2-0.5-0.2-0.8
	c0-0.3,0.1-0.6,0.2-0.8c0.1-0.3,0.3-0.5,0.4-0.7c0.2-0.2,0.4-0.3,0.7-0.5c0.3-0.1,0.5-0.2,0.8-0.2c0.3,0,0.6,0.1,0.8,0.2
	c0.3,0.1,0.5,0.2,0.7,0.4c0.2,0.2,0.3,0.4,0.4,0.7c0.1,0.3,0.2,0.5,0.2,0.8v0.3h-3.4c0.1,0.3,0.2,0.6,0.4,0.8
	c0.2,0.2,0.5,0.3,0.9,0.3c0.3,0,0.5-0.1,0.7-0.2c0.2-0.1,0.4-0.3,0.5-0.5l0.7,0.4c-0.2,0.3-0.4,0.6-0.7,0.8
	C253.1,184.8,252.7,184.9,252.2,184.9z M252.2,181.5c-0.3,0-0.6,0.1-0.8,0.3c-0.2,0.2-0.4,0.4-0.5,0.7h2.4c-0.1-0.3-0.2-0.5-0.4-0.7
	C252.8,181.6,252.5,181.5,252.2,181.5z M256.8,184.9c-0.3,0-0.5-0.1-0.8-0.2c-0.2-0.1-0.5-0.2-0.6-0.4c-0.2-0.2-0.3-0.4-0.5-0.7
	c-0.1-0.3-0.2-0.6-0.2-0.9c0-0.3,0.1-0.6,0.2-0.9c0.1-0.3,0.3-0.5,0.4-0.7c0.2-0.2,0.4-0.3,0.6-0.4c0.2-0.1,0.5-0.1,0.8-0.1
	c0.3,0,0.5,0.1,0.8,0.2c0.2,0.1,0.4,0.3,0.6,0.4v-2.4h0.9v5.9h-0.9v-0.6c-0.2,0.2-0.4,0.4-0.6,0.5
	C257.4,184.9,257.1,184.9,256.8,184.9z M257,184.1c0.2,0,0.4,0,0.5-0.1c0.2-0.1,0.3-0.2,0.4-0.3c0.1-0.1,0.2-0.3,0.3-0.4
	c0.1-0.2,0.1-0.3,0.1-0.5c0-0.2,0-0.3-0.1-0.5c-0.1-0.2-0.2-0.3-0.3-0.4c-0.1-0.1-0.2-0.2-0.4-0.3c-0.2-0.1-0.3-0.1-0.5-0.1
	c-0.2,0-0.3,0-0.5,0.1c-0.2,0.1-0.3,0.2-0.4,0.3c-0.1,0.1-0.2,0.3-0.3,0.4c-0.1,0.2-0.1,0.3-0.1,0.5c0,0.2,0,0.4,0.1,0.5
	c0.1,0.2,0.2,0.3,0.3,0.4c0.1,0.1,0.3,0.2,0.4,0.3C256.6,184.1,256.8,184.1,257,184.1z"/>
<text transform="matrix(1 0 0 1 259.4824 184.86)"><tspan x="0" y="0" class="st1 st4 st3"> </tspan><tspan x="1.7" y="0" class="st1 st4 st3">i</tspan><tspan x="3.7" y="0" class="st1 st4 st3">n</tspan><tspan x="8" y="0" class="st1 st4 st3">t</tspan><tspan x="10.4" y="0" class="st1 st4 st3">e</tspan><tspan x="14.5" y="0" class="st1 st4 st3">g</tspan><tspan x="19.1" y="0" class="st1 st4 st3">r</tspan><tspan x="21.4" y="0" class="st1 st4 st3">a</tspan><tspan x="25.3" y="0" class="st1 st4 st3">t</tspan><tspan x="27.9" y="0" class="st1 st4 st3">i</tspan><tspan x="29.8" y="0" class="st1 st4 st3">on</tspan></text>
<path class="st1" d="M230.5,196.7c-0.3,0-0.6-0.1-0.8-0.2c-0.3-0.1-0.5-0.3-0.7-0.5c-0.2-0.2-0.3-0.4-0.4-0.7
	c-0.1-0.3-0.2-0.5-0.2-0.8c0-0.3,0.1-0.6,0.2-0.8c0.1-0.3,0.3-0.5,0.5-0.7c0.2-0.2,0.4-0.3,0.7-0.4c0.3-0.1,0.5-0.2,0.8-0.2
	c0.5,0,0.9,0.1,1.2,0.3c0.3,0.2,0.6,0.5,0.7,0.9l-0.8,0.3c-0.1-0.2-0.3-0.4-0.5-0.6c-0.2-0.1-0.4-0.2-0.7-0.2c-0.2,0-0.3,0-0.5,0.1
	c-0.2,0.1-0.3,0.2-0.4,0.3c-0.1,0.1-0.2,0.3-0.3,0.4c-0.1,0.2-0.1,0.3-0.1,0.5s0,0.3,0.1,0.5c0.1,0.2,0.2,0.3,0.3,0.4
	c0.1,0.1,0.2,0.2,0.4,0.3c0.2,0.1,0.3,0.1,0.5,0.1c0.3,0,0.5-0.1,0.7-0.2c0.2-0.2,0.3-0.3,0.4-0.6l0.8,0.3c-0.2,0.4-0.4,0.7-0.7,0.9
	C231.4,196.6,231,196.7,230.5,196.7z M235.1,196.7c-0.3,0-0.6-0.1-0.9-0.2c-0.3-0.1-0.5-0.3-0.7-0.4c-0.2-0.2-0.3-0.4-0.4-0.7
	c-0.1-0.3-0.2-0.5-0.2-0.8c0-0.3,0.1-0.6,0.2-0.8c0.1-0.3,0.3-0.5,0.4-0.7c0.2-0.2,0.4-0.3,0.7-0.5c0.3-0.1,0.5-0.2,0.8-0.2
	c0.3,0,0.6,0.1,0.8,0.2c0.3,0.1,0.5,0.2,0.7,0.4c0.2,0.2,0.3,0.4,0.4,0.7c0.1,0.3,0.2,0.5,0.2,0.8v0.3h-3.4c0.1,0.3,0.2,0.6,0.4,0.8
	c0.2,0.2,0.5,0.3,0.9,0.3c0.3,0,0.5-0.1,0.7-0.2c0.2-0.1,0.4-0.3,0.5-0.5l0.7,0.4c-0.2,0.3-0.4,0.6-0.7,0.8
	C235.9,196.6,235.5,196.7,235.1,196.7z M235,193.3c-0.3,0-0.6,0.1-0.8,0.3c-0.2,0.2-0.4,0.4-0.5,0.7h2.4c-0.1-0.3-0.2-0.5-0.4-0.7
	C235.6,193.3,235.4,193.3,235,193.3z M237.9,192.6h0.9v0.6c0.1-0.2,0.3-0.4,0.5-0.5c0.2-0.1,0.4-0.2,0.7-0.2h0.4v0.8h-0.5
	c-0.4,0-0.6,0.1-0.8,0.3c-0.2,0.2-0.2,0.5-0.2,0.9v2h-0.9V192.6z M240.8,192.6h0.7v-1l0.9-0.5v1.4h0.9v0.8h-0.9v1.6
	c0,0.2,0,0.3,0,0.4c0,0.1,0.1,0.2,0.1,0.3c0.1,0.1,0.1,0.1,0.3,0.1c0.1,0,0.3,0,0.5,0v0.8h-0.1c-0.3,0-0.6,0-0.8-0.1
	c-0.2-0.1-0.4-0.1-0.5-0.3c-0.1-0.1-0.2-0.3-0.3-0.5c-0.1-0.2-0.1-0.5-0.1-0.8v-1.6h-0.7V192.6z M243.8,191.4c0-0.2,0.1-0.3,0.2-0.4
	c0.1-0.1,0.2-0.2,0.4-0.2c0.2,0,0.3,0.1,0.4,0.2c0.1,0.1,0.2,0.2,0.2,0.4c0,0.2-0.1,0.3-0.2,0.4c-0.1,0.1-0.2,0.2-0.4,0.2
	c-0.2,0-0.3-0.1-0.4-0.2C243.8,191.7,243.8,191.5,243.8,191.4z M243.9,192.6h0.9v4.1h-0.9V192.6z M245.4,192.6h0.7v-0.2
	c0-0.3,0-0.6,0.1-0.8c0.1-0.2,0.1-0.4,0.3-0.5c0.1-0.1,0.3-0.2,0.5-0.3c0.2-0.1,0.5-0.1,0.8-0.1h0.1v0.8c-0.2,0-0.3,0-0.5,0
	c-0.1,0-0.2,0.1-0.3,0.1c-0.1,0.1-0.1,0.1-0.1,0.3c0,0.1,0,0.3,0,0.4v0.2h0.9v0.8H247v3.3h-0.9v-3.3h-0.7V192.6z M248.3,191.4
	c0-0.2,0.1-0.3,0.2-0.4c0.1-0.1,0.2-0.2,0.4-0.2c0.2,0,0.3,0.1,0.4,0.2c0.1,0.1,0.2,0.2,0.2,0.4c0,0.2-0.1,0.3-0.2,0.4
	c-0.1,0.1-0.2,0.2-0.4,0.2c-0.2,0-0.3-0.1-0.4-0.2C248.4,191.7,248.3,191.5,248.3,191.4z M248.5,192.6h0.9v4.1h-0.9V192.6z
	 M252.2,196.7c-0.3,0-0.6-0.1-0.9-0.2c-0.3-0.1-0.5-0.3-0.7-0.4c-0.2-0.2-0.3-0.4-0.4-0.7c-0.1-0.3-0.2-0.5-0.2-0.8
	c0-0.3,0.1-0.6,0.2-0.8c0.1-0.3,0.3-0.5,0.4-0.7c0.2-0.2,0.4-0.3,0.7-0.5c0.3-0.1,0.5-0.2,0.8-0.2c0.3,0,0.6,0.1,0.8,0.2
	c0.3,0.1,0.5,0.2,0.7,0.4c0.2,0.2,0.3,0.4,0.4,0.7c0.1,0.3,0.2,0.5,0.2,0.8v0.3h-3.4c0.1,0.3,0.2,0.6,0.4,0.8
	c0.2,0.2,0.5,0.3,0.9,0.3c0.3,0,0.5-0.1,0.7-0.2c0.2-0.1,0.4-0.3,0.5-0.5l0.7,0.4c-0.2,0.3-0.4,0.6-0.7,0.8
	C253.1,196.6,252.7,196.7,252.2,196.7z M252.2,193.3c-0.3,0-0.6,0.1-0.8,0.3c-0.2,0.2-0.4,0.4-0.5,0.7h2.4c-0.1-0.3-0.2-0.5-0.4-0.7
	C252.8,193.3,252.5,193.3,252.2,193.3z M256.8,196.7c-0.3,0-0.5-0.1-0.8-0.2c-0.2-0.1-0.5-0.2-0.6-0.4c-0.2-0.2-0.3-0.4-0.5-0.7
	c-0.1-0.3-0.2-0.6-0.2-0.9c0-0.3,0.1-0.6,0.2-0.9c0.1-0.3,0.3-0.5,0.4-0.7c0.2-0.2,0.4-0.3,0.6-0.4c0.2-0.1,0.5-0.1,0.8-0.1
	c0.3,0,0.5,0.1,0.8,0.2c0.2,0.1,0.4,0.3,0.6,0.4v-2.4h0.9v5.9h-0.9v-0.6c-0.2,0.2-0.4,0.4-0.6,0.5
	C257.4,196.7,257.1,196.7,256.8,196.7z M257,195.9c0.2,0,0.4,0,0.5-0.1c0.2-0.1,0.3-0.2,0.4-0.3c0.1-0.1,0.2-0.3,0.3-0.4
	c0.1-0.2,0.1-0.3,0.1-0.5c0-0.2,0-0.3-0.1-0.5c-0.1-0.2-0.2-0.3-0.3-0.4c-0.1-0.1-0.2-0.2-0.4-0.3c-0.2-0.1-0.3-0.1-0.5-0.1
	c-0.2,0-0.3,0-0.5,0.1c-0.2,0.1-0.3,0.2-0.4,0.3c-0.1,0.1-0.2,0.3-0.3,0.4c-0.1,0.2-0.1,0.3-0.1,0.5c0,0.2,0,0.4,0.1,0.5
	s0.2,0.3,0.3,0.4c0.1,0.1,0.3,0.2,0.4,0.3C256.6,195.9,256.8,195.9,257,195.9z"/>
<path class="st1" d="M261.5,192.6h0.5l1.1,3.4l1.3-3.4h0.4l1.3,3.4l1.1-3.4h0.5l-1.4,4.1h-0.4l-1.3-3.4l-1.3,3.4h-0.5L261.5,192.6z
	 M268.2,194.6c0-0.3,0.1-0.6,0.2-0.8c0.1-0.3,0.3-0.5,0.5-0.7c0.2-0.2,0.4-0.3,0.7-0.5c0.3-0.1,0.5-0.2,0.8-0.2
	c0.3,0,0.6,0.1,0.8,0.2c0.3,0.1,0.5,0.3,0.7,0.5c0.2,0.2,0.3,0.4,0.5,0.7c0.1,0.3,0.2,0.5,0.2,0.8s-0.1,0.6-0.2,0.8
	c-0.1,0.3-0.3,0.5-0.5,0.7c-0.2,0.2-0.4,0.3-0.7,0.5c-0.3,0.1-0.5,0.2-0.8,0.2c-0.3,0-0.6-0.1-0.8-0.2c-0.3-0.1-0.5-0.3-0.7-0.5
	c-0.2-0.2-0.3-0.4-0.4-0.7C268.2,195.2,268.2,194.9,268.2,194.6z M268.7,194.6c0,0.2,0,0.5,0.1,0.7c0.1,0.2,0.2,0.4,0.3,0.5
	c0.1,0.2,0.3,0.3,0.5,0.4c0.2,0.1,0.4,0.1,0.6,0.1s0.4,0,0.6-0.1c0.2-0.1,0.4-0.2,0.5-0.4c0.1-0.2,0.3-0.3,0.4-0.5
	c0.1-0.2,0.1-0.4,0.1-0.7c0-0.2,0-0.5-0.1-0.7c-0.1-0.2-0.2-0.4-0.4-0.5c-0.1-0.2-0.3-0.3-0.5-0.4c-0.2-0.1-0.4-0.1-0.6-0.1
	s-0.4,0-0.6,0.1c-0.2,0.1-0.4,0.2-0.5,0.4c-0.1,0.2-0.3,0.3-0.3,0.5C268.7,194.2,268.7,194.4,268.7,194.6z M273.4,192.6h0.5v0.8
	c0.1-0.2,0.3-0.4,0.6-0.6c0.2-0.1,0.5-0.2,0.9-0.2h0.3v0.4h-0.3c-0.5,0-0.9,0.1-1.1,0.4c-0.2,0.3-0.3,0.6-0.3,1.1v2.1h-0.5V192.6z
	 M277.8,194.6l-0.9,1v1.1h-0.5v-5.9h0.5v4.3l2.3-2.4h0.6l-1.7,1.7l1.7,2.4h-0.5L277.8,194.6z M280.5,192.6h0.7v-0.4
	c0-0.3,0-0.5,0.1-0.7c0-0.2,0.1-0.3,0.2-0.5c0.1-0.1,0.3-0.2,0.4-0.2c0.2,0,0.4-0.1,0.7-0.1h0v0.4c-0.2,0-0.4,0-0.5,0
	c-0.1,0-0.2,0.1-0.3,0.2c-0.1,0.1-0.1,0.2-0.1,0.3c0,0.1,0,0.3,0,0.5v0.4h1v0.4h-1v3.6h-0.5V193h-0.7V192.6z M283.3,190.7h0.5v5.9
	h-0.5V190.7z M284.7,194.6c0-0.3,0.1-0.6,0.2-0.8c0.1-0.3,0.3-0.5,0.5-0.7c0.2-0.2,0.4-0.3,0.7-0.5c0.3-0.1,0.5-0.2,0.8-0.2
	c0.3,0,0.6,0.1,0.8,0.2c0.3,0.1,0.5,0.3,0.7,0.5c0.2,0.2,0.3,0.4,0.5,0.7c0.1,0.3,0.2,0.5,0.2,0.8s-0.1,0.6-0.2,0.8
	c-0.1,0.3-0.3,0.5-0.5,0.7c-0.2,0.2-0.4,0.3-0.7,0.5c-0.3,0.1-0.5,0.2-0.8,0.2c-0.3,0-0.6-0.1-0.8-0.2c-0.3-0.1-0.5-0.3-0.7-0.5
	c-0.2-0.2-0.3-0.4-0.4-0.7C284.8,195.2,284.7,194.9,284.7,194.6z M285.2,194.6c0,0.2,0,0.5,0.1,0.7c0.1,0.2,0.2,0.4,0.3,0.5
	c0.1,0.2,0.3,0.3,0.5,0.4c0.2,0.1,0.4,0.1,0.6,0.1s0.4,0,0.6-0.1c0.2-0.1,0.4-0.2,0.5-0.4c0.1-0.2,0.3-0.3,0.4-0.5
	c0.1-0.2,0.1-0.4,0.1-0.7c0-0.2,0-0.5-0.1-0.7c-0.1-0.2-0.2-0.4-0.4-0.5c-0.1-0.2-0.3-0.3-0.5-0.4c-0.2-0.1-0.4-0.1-0.6-0.1
	s-0.4,0-0.6,0.1c-0.2,0.1-0.4,0.2-0.5,0.4c-0.1,0.2-0.3,0.3-0.3,0.5C285.2,194.2,285.2,194.4,285.2,194.6z M289.5,192.6h0.5l1.1,3.4
	l1.3-3.4h0.4l1.3,3.4l1.1-3.4h0.5l-1.4,4.1h-0.4l-1.3-3.4l-1.3,3.4h-0.5L289.5,192.6z"/>
<line class="st5" x1="228.5" y1="123" x2="337.5" y2="123"/>
<line class="st5" x1="185.4" y1="67.4" x2="353" y2="67.4"/>
<g>
	<defs>
		<rect id="SVGID_1_" x="187.2" y="84.6" width="150.2" height="33.3"/>
	</defs>
	<clipPath id="SVGID_2_">
		<use xlink:href="#SVGID_1_"  style="overflow:visible;"/>
	</clipPath>
	<path class="st6" d="M228.2,92.4c0-2.4,1.9-4.2,4.2-4.2c1.8,0,3.2,1,3.8,2.5l-1.6,0.7c-0.4-0.9-1.2-1.5-2.3-1.5
		c-1.4,0-2.5,1.1-2.5,2.6c0,1.4,1.1,2.6,2.6,2.6c1.1,0,1.9-0.7,2.3-1.6l1.6,0.7c-0.6,1.5-2,2.5-3.9,2.5
		C230.1,96.6,228.2,94.7,228.2,92.4"/>
	<path class="st6" d="M236.9,92.4c0-2.6,1.9-4.2,4-4.2c1.1,0,2.1,0.5,2.7,1.2v-1.1h1.7v8.1h-1.7v-1.1c-0.6,0.8-1.6,1.3-2.7,1.3
		C238.9,96.6,236.9,95,236.9,92.4 M243.7,92.4c0-1.4-1.1-2.6-2.6-2.6c-1.4,0-2.6,1.1-2.6,2.6c0,1.5,1.1,2.6,2.6,2.6
		C242.6,95,243.7,93.9,243.7,92.4"/>
	<path class="st6" d="M246.9,88.4h1.7v1.3c0.4-0.8,1.2-1.3,2.4-1.3h0.8V90h-1.1c-1.5,0-2.1,0.7-2.1,2.4v4h-1.7V88.4z"/>
	<path class="st6" d="M252.2,92.4c0-2.6,1.9-4.2,4-4.2c1.1,0,2.1,0.5,2.7,1.3v-1.1h1.7v7.9c0,2.4-1.5,4.1-4.1,4.1c-2,0-3.4-1-4-2.3
		l1.6-0.8c0.4,0.9,1.2,1.5,2.4,1.5c1.5,0,2.4-1.1,2.4-2.5v-1c-0.6,0.8-1.6,1.3-2.7,1.3C254.2,96.6,252.2,95,252.2,92.4 M259,92.4
		c0-1.4-1.1-2.6-2.6-2.6c-1.4,0-2.6,1.1-2.6,2.6c0,1.5,1.1,2.6,2.6,2.6C257.9,95,259,93.9,259,92.4"/>
	<path class="st6" d="M261.8,92.4c0-2.4,1.9-4.2,4.2-4.2c2.3,0,4.2,1.8,4.2,4.2c0,2.3-1.9,4.2-4.2,4.2
		C263.6,96.6,261.8,94.8,261.8,92.4 M268.5,92.4c0-1.4-1.1-2.6-2.5-2.6c-1.4,0-2.5,1.2-2.5,2.6c0,1.4,1.1,2.6,2.5,2.6
		C267.4,95,268.5,93.8,268.5,92.4"/>
	<polygon class="st6" points="270.4,88.4 272.2,88.4 274,94.1 276.1,88.4 277.8,88.4 279.9,94.1 281.8,88.4 283.6,88.4 280.8,96.5 
		279.1,96.5 277,90.7 274.8,96.5 273.1,96.5 	"/>
	<path class="st6" d="M285.3,84.8c0.7,0,1.2,0.5,1.2,1.2s-0.5,1.2-1.2,1.2c-0.7,0-1.2-0.5-1.2-1.2S284.6,84.8,285.3,84.8
		 M284.4,88.4h1.7v8.1h-1.7V88.4z"/>
	<path class="st6" d="M287,94.8l1.6-0.8c0.5,0.8,1.2,1.2,2.1,1.2c1,0,1.5-0.5,1.5-1.1c0-0.7-1-0.8-2-1c-1.4-0.3-2.8-0.7-2.8-2.4
		c0-1.3,1.2-2.5,3.2-2.4c1.6,0,2.6,0.6,3.3,1.6l-1.5,0.8c-0.4-0.6-1-0.9-1.8-0.9c-1,0-1.4,0.4-1.4,1c0,0.6,0.7,0.7,1.9,1
		c1.4,0.3,2.9,0.7,2.9,2.4c0,1.2-1.1,2.6-3.3,2.6C288.9,96.6,287.7,96,287,94.8"/>
	<path class="st6" d="M294.6,92.4c0-2.4,1.8-4.2,4.2-4.2c2.4,0,4.2,1.7,4.2,4.1V93h-6.7c0.2,1.2,1.2,2.1,2.6,2.1
		c1.1,0,1.9-0.6,2.4-1.5l1.4,0.8c-0.7,1.3-2,2.2-3.8,2.2C296.3,96.6,294.6,94.8,294.6,92.4 M296.3,91.5h4.9
		c-0.3-1.2-1.1-1.8-2.4-1.8C297.6,89.7,296.7,90.5,296.3,91.5"/>
	<path class="st6" d="M227.8,112.8l0.7-0.6c0.6,0.8,1.5,1.3,2.6,1.3c1.4,0,2.1-0.7,2.1-1.6c0-1-1.1-1.2-2.3-1.5
		c-1.3-0.3-2.7-0.7-2.7-2.2c0-1.2,1.1-2.2,2.8-2.2c1.2,0,2.3,0.5,2.9,1.2l-0.7,0.6c-0.5-0.6-1.3-1-2.2-1c-1.2,0-1.9,0.6-1.9,1.4
		c0,1,1.1,1.2,2.3,1.5c1.3,0.3,2.7,0.7,2.7,2.3c0,1.1-1,2.4-3.1,2.4C229.7,114.3,228.5,113.8,227.8,112.8"/>
	<path class="st6" d="M235.2,110.2c0-2.4,1.8-4.3,4.2-4.3c2.4,0,4.1,1.7,4.1,4.1v0.4h-7.5c0.1,1.8,1.5,3.1,3.4,3.1
		c1.5,0,2.5-0.8,3.1-2l0.8,0.4c-0.7,1.6-2,2.5-3.8,2.5C236.8,114.3,235.2,112.5,235.2,110.2 M236.1,109.6h6.5
		c-0.2-1.7-1.4-2.8-3.2-2.8C237.7,106.8,236.4,108,236.1,109.6"/>
	<path class="st6" d="M245.1,106.1h0.9v1.5c0.5-1,1.5-1.5,2.9-1.5h0.5v0.9h-0.5c-2,0-2.9,1-2.9,3v4.2h-0.9V106.1z"/>
	<polygon class="st6" points="250.4,106.1 251.4,106.1 254,113 256.7,106.1 257.6,106.1 254.4,114.2 253.5,114.2 	"/>
	<path class="st6" d="M259.2,102.7c0.5,0,0.8,0.4,0.8,0.8c0,0.5-0.4,0.8-0.8,0.8c-0.5,0-0.8-0.4-0.8-0.8
		C258.4,103.1,258.8,102.7,259.2,102.7 M258.8,106.1h0.9v8.1h-0.9V106.1z"/>
	<path class="st6" d="M261.2,110.1c0-2.4,1.9-4.2,4.2-4.2c1.8,0,3.2,1,3.8,2.5l-0.8,0.4c-0.5-1.2-1.6-2-3-2c-1.9,0-3.3,1.5-3.3,3.4
		c0,1.9,1.4,3.4,3.3,3.4c1.4,0,2.5-0.9,3-2.1l0.9,0.4c-0.6,1.5-2,2.5-3.8,2.5C263,114.3,261.2,112.5,261.2,110.1"/>
	<path class="st6" d="M270.3,110.2c0-2.4,1.8-4.3,4.2-4.3c2.4,0,4.1,1.7,4.1,4.1v0.4h-7.5c0.1,1.8,1.5,3.1,3.4,3.1
		c1.5,0,2.5-0.8,3.1-2l0.8,0.4c-0.7,1.6-2,2.5-3.8,2.5C271.9,114.3,270.3,112.5,270.3,110.2 M271.2,109.6h6.5
		c-0.2-1.7-1.4-2.8-3.2-2.8C272.8,106.8,271.4,108,271.2,109.6"/>
	<path class="st6" d="M284.4,112.6v5.3h-0.9v-11.8h0.9v1.7c0.6-1.2,2-1.9,3.3-1.9c2.4,0,4.2,1.9,4.2,4.2c0,2.3-1.8,4.2-4.2,4.2
		C286.4,114.3,285,113.7,284.4,112.6 M290.9,110.1c0-1.9-1.4-3.4-3.3-3.4c-1.9,0-3.3,1.5-3.3,3.4c0,1.9,1.4,3.4,3.3,3.4
		C289.5,113.5,290.9,112,290.9,110.1"/>
	<path class="st6" d="M293,110.1c0-2.3,1.8-4.2,4.2-4.2c1.2,0,2.6,0.7,3.3,1.8v-1.7h0.9v8.1h-0.9v-1.7c-0.7,1.2-2,1.8-3.3,1.8
		C294.8,114.3,293,112.4,293,110.1 M300.5,110.1c0-1.8-1.4-3.4-3.3-3.4c-1.8,0-3.3,1.5-3.3,3.4c0,1.9,1.5,3.4,3.3,3.4
		C299.1,113.5,300.5,112,300.5,110.1"/>
	<path class="st6" d="M303.4,106.1h0.9v1.5c0.5-1,1.5-1.5,2.9-1.5h0.5v0.9h-0.5c-2,0-2.9,1-2.9,3v4.2h-0.9V106.1z"/>
	<path class="st6" d="M308.6,106.1h1.4v-1.9l0.9-0.5v2.4h2.1v0.8H311v4.3c0,1.8,0.4,2.1,2.1,2.1v0.9h-0.1c-2.2,0-2.9-0.6-2.9-2.9
		v-4.3h-1.4V106.1z"/>
	<path class="st6" d="M314.2,106.1h0.9v1.5c0.5-1,1.6-1.7,3-1.7c2.2,0,3.6,1.4,3.6,3.7v4.5h-0.9v-4.5c0-1.7-1-2.9-2.8-2.9
		c-1.6,0-2.9,1.2-2.9,2.9v4.5h-0.9V106.1z"/>
	<path class="st6" d="M323.2,110.2c0-2.4,1.8-4.3,4.2-4.3c2.4,0,4.1,1.7,4.1,4.1v0.4h-7.5c0.1,1.8,1.5,3.1,3.4,3.1
		c1.5,0,2.5-0.8,3.1-2l0.8,0.4c-0.7,1.6-2,2.5-3.8,2.5C324.8,114.3,323.2,112.5,323.2,110.2 M324.1,109.6h6.5
		c-0.2-1.7-1.4-2.8-3.2-2.8C325.7,106.8,324.4,108,324.1,109.6"/>
	<path class="st6" d="M333.1,106.1h0.9v1.5c0.5-1,1.5-1.5,2.9-1.5h0.5v0.9h-0.5c-2,0-2.9,1-2.9,3v4.2h-0.9V106.1z"/>
	<path class="st6" d="M193.1,87.6h8.9v-3h-8.9V87.6z M196,96.5h-8.9v3h8.9V96.5z M193.1,117.1h8.9v-3h-8.9V117.1z M204.9,87.6h14.8
		v-3h-14.8V87.6z M204.9,93.5h14.8v-3h-14.8V93.5z M204.9,99.4h14.8v-3h-14.8V99.4z M201.9,102.4h-14.8v3h14.8V102.4z M204.9,111.2
		h14.8v-3h-14.8V111.2z"/>
</g>
<rect x="172.2" y="4.2" class="st0" width="191.7" height="62.5"/>
<g>
	<path class="st1" d="M228.4,26.9c0-2.4,1.9-4.2,4.3-4.2c1.8,0,3.2,1,3.9,2.5l-1.6,0.7c-0.4-0.9-1.2-1.5-2.3-1.5
		c-1.4,0-2.5,1.2-2.5,2.6c0,1.4,1.1,2.6,2.6,2.6c1.1,0,1.9-0.7,2.3-1.6l1.6,0.7c-0.7,1.5-2,2.6-3.9,2.6
		C230.3,31.2,228.4,29.3,228.4,26.9"/>
	<path class="st1" d="M237.1,26.9c0-2.6,1.9-4.2,4.1-4.2c1.1,0,2.1,0.5,2.7,1.2v-1.1h1.7V31h-1.7v-1.1c-0.6,0.8-1.6,1.3-2.7,1.3
		C239.1,31.2,237.1,29.5,237.1,26.9 M244,26.9c0-1.4-1.1-2.6-2.6-2.6c-1.4,0-2.6,1.2-2.6,2.6c0,1.5,1.1,2.7,2.6,2.7
		C242.9,29.6,244,28.4,244,26.9"/>
	<path class="st1" d="M247.2,22.8h1.7v1.3c0.4-0.8,1.2-1.3,2.4-1.3h0.8v1.7H251c-1.5,0-2.1,0.7-2.1,2.4v4h-1.8V22.8z"/>
	<path class="st1" d="M252.5,26.9c0-2.6,1.9-4.2,4.1-4.2c1.1,0,2.1,0.5,2.7,1.3v-1.1h1.7v7.9c0,2.4-1.5,4.2-4.1,4.2
		c-2,0-3.4-1-4-2.3l1.6-0.8c0.4,0.9,1.2,1.5,2.4,1.5c1.5,0,2.4-1.1,2.4-2.5v-1c-0.6,0.8-1.7,1.3-2.7,1.3
		C254.5,31.2,252.5,29.5,252.5,26.9 M259.4,26.9c0-1.4-1.1-2.6-2.6-2.6c-1.4,0-2.6,1.2-2.6,2.6c0,1.5,1.1,2.7,2.6,2.7
		C258.3,29.6,259.4,28.4,259.4,26.9"/>
	<path class="st1" d="M262.2,26.9c0-2.4,1.9-4.2,4.2-4.2c2.3,0,4.2,1.9,4.2,4.2c0,2.4-1.9,4.2-4.2,4.2
		C264.1,31.2,262.2,29.3,262.2,26.9 M268.9,26.9c0-1.4-1.1-2.6-2.5-2.6s-2.5,1.2-2.5,2.6c0,1.4,1.1,2.6,2.5,2.6
		S268.9,28.3,268.9,26.9"/>
	<polygon class="st1" points="270.9,22.8 272.6,22.8 274.5,28.6 276.6,22.8 278.3,22.8 280.4,28.6 282.4,22.8 284.1,22.8 281.3,31 
		279.6,31 277.5,25.2 275.3,31 273.6,31 	"/>
	<path class="st1" d="M285.9,19.2c0.7,0,1.2,0.5,1.2,1.2c0,0.7-0.5,1.2-1.2,1.2c-0.7,0-1.2-0.5-1.2-1.2
		C284.7,19.7,285.2,19.2,285.9,19.2 M285,22.8h1.8V31H285V22.8z"/>
	<path class="st1" d="M287.6,29.3l1.6-0.8c0.5,0.8,1.2,1.2,2.2,1.2c1,0,1.5-0.5,1.5-1.1c0-0.7-1-0.8-2-1c-1.4-0.3-2.9-0.7-2.9-2.4
		c0-1.3,1.2-2.5,3.2-2.5c1.6,0,2.6,0.6,3.3,1.6L293,25c-0.4-0.6-1-0.9-1.9-0.9c-1,0-1.4,0.4-1.4,1c0,0.6,0.7,0.7,1.9,1
		c1.4,0.3,2.9,0.7,2.9,2.5c0,1.2-1.1,2.6-3.4,2.6C289.4,31.2,288.3,30.5,287.6,29.3"/>
	<path class="st1" d="M295.2,26.9c0-2.4,1.8-4.3,4.2-4.3c2.4,0,4.2,1.7,4.2,4.2v0.7h-6.7c0.2,1.3,1.2,2.1,2.6,2.1
		c1.1,0,2-0.6,2.4-1.5l1.4,0.8c-0.7,1.3-2,2.2-3.8,2.2C297,31.2,295.2,29.3,295.2,26.9 M297,26h4.9c-0.3-1.2-1.2-1.8-2.4-1.8
		C298.3,24.2,297.3,25,297,26"/>
	<path class="st1" d="M229.6,47.1v1.7h-0.9V36.9h0.9v5.4c0.7-1.2,2-1.8,3.3-1.8c2.4,0,4.2,1.9,4.2,4.2c0,2.3-1.8,4.2-4.2,4.2
		C231.7,49,230.3,48.3,229.6,47.1 M236.2,44.8c0-1.9-1.4-3.4-3.3-3.4c-1.9,0-3.4,1.5-3.4,3.4c0,1.9,1.4,3.4,3.4,3.4
		C234.7,48.2,236.2,46.6,236.2,44.8"/>
	<path class="st1" d="M238.6,45.3v-4.6h0.9v4.6c0,1.7,0.9,2.9,2.7,2.9c1.6,0,2.8-1.3,2.8-2.9v-4.5h0.9v8.1h-0.9v-1.5
		c-0.5,1-1.6,1.7-2.9,1.7C239.9,49,238.6,47.6,238.6,45.3"/>
	<path class="st1" d="M247.2,47.5l0.7-0.6c0.6,0.8,1.5,1.3,2.6,1.3c1.4,0,2.1-0.7,2.1-1.6c0-1-1.2-1.2-2.3-1.5
		c-1.3-0.3-2.7-0.7-2.7-2.3c0-1.2,1.1-2.3,2.9-2.3c1.2,0,2.3,0.5,3,1.2l-0.7,0.6c-0.6-0.6-1.3-1-2.3-1c-1.3,0-2,0.6-2,1.4
		c0,1,1.1,1.2,2.3,1.5c1.3,0.3,2.8,0.7,2.8,2.3c0,1.1-1,2.4-3.1,2.4C249.1,49,247.9,48.4,247.2,47.5"/>
	<path class="st1" d="M255.6,37.3c0.5,0,0.8,0.4,0.8,0.8c0,0.5-0.4,0.8-0.8,0.8c-0.5,0-0.8-0.4-0.8-0.8
		C254.7,37.7,255.1,37.3,255.6,37.3 M255.1,40.7h0.9v8.1h-0.9V40.7z"/>
	<path class="st1" d="M258,40.7h0.9v1.5c0.6-1,1.6-1.7,3-1.7c2.2,0,3.6,1.4,3.6,3.7v4.6h-0.9v-4.6c0-1.7-1-2.9-2.8-2.9
		c-1.6,0-2.9,1.3-2.9,2.9v4.5H258V40.7z"/>
	<path class="st1" d="M267,44.8c0-2.4,1.8-4.3,4.2-4.3c2.4,0,4.2,1.7,4.2,4.1v0.4h-7.5c0.1,1.8,1.5,3.1,3.4,3.1c1.5,0,2.5-0.8,3.1-2
		l0.8,0.4c-0.7,1.6-2,2.5-3.9,2.5C268.7,49,267,47.2,267,44.8 M267.9,44.2h6.5c-0.2-1.7-1.4-2.9-3.2-2.9
		C269.5,41.4,268.2,42.6,267.9,44.2"/>
	<path class="st1" d="M276.1,47.5l0.7-0.6c0.6,0.8,1.5,1.3,2.6,1.3c1.4,0,2.1-0.7,2.1-1.6c0-1-1.2-1.2-2.3-1.5
		c-1.3-0.3-2.7-0.7-2.7-2.3c0-1.2,1.1-2.3,2.9-2.3c1.2,0,2.3,0.5,3,1.2l-0.7,0.6c-0.6-0.6-1.3-1-2.3-1c-1.3,0-2,0.6-2,1.4
		c0,1,1.1,1.2,2.3,1.5c1.3,0.3,2.8,0.7,2.8,2.3c0,1.1-1,2.4-3.1,2.4C278,49,276.9,48.4,276.1,47.5"/>
	<path class="st1" d="M283.4,47.5l0.7-0.6c0.6,0.8,1.5,1.3,2.6,1.3c1.4,0,2.1-0.7,2.1-1.6c0-1-1.2-1.2-2.3-1.5
		c-1.3-0.3-2.7-0.7-2.7-2.3c0-1.2,1.1-2.3,2.9-2.3c1.2,0,2.3,0.5,3,1.2l-0.7,0.6c-0.6-0.6-1.3-1-2.3-1c-1.3,0-2,0.6-2,1.4
		c0,1,1.1,1.2,2.3,1.5c1.3,0.3,2.8,0.7,2.8,2.3c0,1.1-1,2.4-3.1,2.4C285.3,49,284.1,48.4,283.4,47.5"/>
	<path class="st1" d="M295.7,47.2v5.4h-0.9V40.7h0.9v1.7c0.7-1.2,2-1.9,3.3-1.9c2.4,0,4.2,1.9,4.2,4.2c0,2.3-1.8,4.2-4.2,4.2
		C297.6,49,296.3,48.4,295.7,47.2 M302.2,44.8c0-1.9-1.4-3.4-3.3-3.4c-1.9,0-3.3,1.5-3.3,3.4c0,1.9,1.4,3.4,3.3,3.4
		C300.8,48.2,302.2,46.6,302.2,44.8"/>
	<path class="st1" d="M304.3,44.8c0-2.3,1.8-4.2,4.2-4.2c1.2,0,2.6,0.7,3.3,1.9v-1.7h0.9v8.1h-0.9v-1.7c-0.7,1.2-2.1,1.9-3.3,1.9
		C306.1,49,304.3,47.1,304.3,44.8 M311.9,44.8c0-1.9-1.4-3.4-3.3-3.4c-1.8,0-3.3,1.5-3.3,3.4c0,1.9,1.5,3.4,3.3,3.4
		C310.5,48.2,311.9,46.6,311.9,44.8"/>
	<path class="st1" d="M314.8,40.7h0.9v1.5c0.5-1,1.5-1.5,2.9-1.5h0.5v0.9h-0.5c-2,0-2.9,1-2.9,3v4.3h-0.9V40.7z"/>
	<path class="st1" d="M320.1,40.7h1.4v-1.9l0.9-0.6v2.5h2.1v0.8h-2.1v4.3c0,1.8,0.4,2.1,2.1,2.1v0.9h-0.1c-2.3,0-2.9-0.6-2.9-3v-4.3
		h-1.4V40.7z"/>
	<path class="st1" d="M325.7,40.7h0.9v1.5c0.6-1,1.6-1.7,3-1.7c2.2,0,3.6,1.4,3.6,3.7v4.6h-0.9v-4.6c0-1.7-1-2.9-2.8-2.9
		c-1.6,0-2.9,1.3-2.9,2.9v4.5h-0.9V40.7z"/>
	<path class="st1" d="M334.7,44.8c0-2.4,1.8-4.3,4.2-4.3c2.4,0,4.2,1.7,4.2,4.1v0.4h-7.5c0.1,1.8,1.5,3.1,3.4,3.1
		c1.5,0,2.5-0.8,3.1-2l0.8,0.4c-0.7,1.6-2,2.5-3.9,2.5C336.4,49,334.7,47.2,334.7,44.8 M335.7,44.2h6.5c-0.2-1.7-1.4-2.9-3.2-2.9
		C337.3,41.4,335.9,42.6,335.7,44.2"/>
	<path class="st1" d="M344.7,40.7h0.9v1.5c0.5-1,1.5-1.5,2.9-1.5h0.5v0.9h-0.5c-2,0-2.9,1-2.9,3v4.3h-0.9V40.7z"/>
	<path class="st1" d="M193,22.1h8.9v-3H193V22.1z M196,31h-8.9v3h8.9V31z M193,51.8h8.9v-3H193V51.8z M204.9,22.1h14.9v-3h-14.9
		V22.1z M204.9,28h14.9v-3h-14.9V28z M204.9,34h14.9v-3h-14.9V34z M201.9,36.9h-14.9v3h14.9V36.9z M204.9,45.9h14.9v-3h-14.9V45.9z"
		/>
</g>
<g>
	<linearGradient id="SVGID_3_" gradientUnits="userSpaceOnUse" x1="-8.6646" y1="109.6647" x2="113.8194" y2="-17.1322">
		<stop  offset="0" style="stop-color:#F5B156"/>
		<stop  offset="0.3925" style="stop-color:#00B9B5"/>
		<stop  offset="1" style="stop-color:#6190CB"/>
	</linearGradient>
	<path class="st7" d="M48.3,81.9c-5.2-3-11-3.3-13.5-3.3L13.4,6.3c4.7,1,13.8,3.9,16.5,12.4l8,30.7c-1.4,1-2.3,2.6-2.3,4.4
		c0,3,2.4,5.4,5.4,5.4s5.4-2.4,5.4-5.4c0-2.8-2.1-5.1-4.8-5.4l-7.2-27.5c2.4,0.8,5.5,2.5,6.8,5.8c2.2,5.8,8.4,32.8,9.8,38.9
		c-1.4,1-2.4,2.6-2.4,4.5c0,3,2.4,5.4,5.4,5.4c3,0,5.4-2.4,5.4-5.4c0-2.7-2-5-4.7-5.4c-1.4-6.2-7.7-33.3-10-39.4
		c-2.3-6.2-8.9-8.3-11.7-8.9C28.2,3.4,11.5,2,10.8,1.9L7.9,1.7l22.9,77.2c-3.2,0.6-8.2,2.5-11.4,8.7c-3.8,7.2-1.6,11,0,12.6
		c-0.3,3.7,2.7,6.4,2.9,6.5l2.3,2l0.9-2.9c0.2-0.7,1.5-4.2,6-3.4c1.7,0.3,3.1,1.2,4.2,2.8c1.5,2.3,3.6,7.9,1,19.9l-12,12.5l2.8,2.7
		c2.8-2.9,7.9-6.6,10.3-6.1l0.8-3.8c-0.5-0.1-1-0.2-1.6-0.1l3.1-3.3l0.1-0.5c2.4-10.2,1.9-18.5-1.4-23.4c-1.7-2.5-4-4.1-6.8-4.5
		c-4.2-0.7-7,1-8.7,2.9c-0.1-0.5-0.2-1,0-1.6l0.4-1.5l-1.4-0.7c0,0-2.9-1.8,0.5-8.3c3.7-7.1,10.4-6.9,10.7-6.9l0.2,0l0.1,0
		c0.1,0,7.6-0.6,13.5,3.3l1.1,0.8l89.6-65c-1.6,5.7-5.3,14.9-12.6,20.5L94,65.8c-0.8-0.5-1.9-0.9-2.9-0.9c-3,0-5.4,2.4-5.4,5.4
		c0,3,2.4,5.4,5.4,5.4s5.4-2.4,5.4-5.4c0-0.5-0.1-1-0.2-1.4l29.4-22.1c0.6,2.9,0.3,8.5-6.7,15.7L88.9,86.7C88,86.2,87,85.9,86,85.9
		c-3,0-5.4,2.4-5.4,5.4c0,3,2.4,5.4,5.4,5.4c3,0,5.4-2.4,5.4-5.4c0-0.5-0.1-1-0.2-1.5l30.3-24.2l0.2-0.2c9.7-9.9,8.5-17.8,7.3-21.1
		c11.4-9.7,14-26.3,14.1-27l0.7-4.6L48.3,81.9z M57,70.1c0,1.6-1.3,2.9-2.9,2.9c-1.6,0-2.9-1.3-2.9-2.9s1.3-2.9,2.9-2.9
		C55.7,67.2,57,68.5,57,70.1z M43.9,53.8c0,1.6-1.3,2.9-2.9,2.9s-2.9-1.3-2.9-2.9c0-1.6,1.3-2.9,2.9-2.9S43.9,52.2,43.9,53.8z
		 M86,94.2c-1.6,0-2.9-1.3-2.9-2.9s1.3-2.9,2.9-2.9s2.9,1.3,2.9,2.9S87.6,94.2,86,94.2z M91.1,73.3c-1.6,0-2.9-1.3-2.9-2.9
		c0-1.6,1.3-2.9,2.9-2.9s2.9,1.3,2.9,2.9C93.9,72,92.7,73.3,91.1,73.3z"/>
	<linearGradient id="SVGID_4_" gradientUnits="userSpaceOnUse" x1="46.2809" y1="162.7413" x2="168.774" y2="35.935">
		<stop  offset="0" style="stop-color:#F5B156"/>
		<stop  offset="0.3925" style="stop-color:#00B9B5"/>
		<stop  offset="1" style="stop-color:#6190CB"/>
	</linearGradient>
	<path class="st8" d="M64,96.8l44,42.7c-2.8,1.1-8.2,1.8-15.2-3.8l-23.5-23.5l-2.8,2.8l22.2,22.2c-1.2,1.2-3.3,2.7-5.7,3
		c-1.8,0.2-3.4-0.4-5.1-1.7l-6.8-6.8l-2.8,2.8l4.4,4.4c-1.8,0.2-4,0.1-6-1.2l-3.2-11.9l-3.8,1l3.5,13.2l0.5,0.4
		c4.5,3.7,10.1,2.6,12.4,1.8c1.9,1.3,3.9,2,6,2c0.4,0,0.8,0,1.1-0.1c3.7-0.4,6.6-2.7,8.2-4.3c12,8.6,20.7,1.8,20.7,1.7l1.7-1.4
		L66.7,94L64,96.8z"/>
	<linearGradient id="SVGID_5_" gradientUnits="userSpaceOnUse" x1="31.8526" y1="148.8037" x2="154.3366" y2="22.0069">
		<stop  offset="0" style="stop-color:#F5B156"/>
		<stop  offset="0.3925" style="stop-color:#00B9B5"/>
		<stop  offset="1" style="stop-color:#6190CB"/>
	</linearGradient>
	<path class="st9" d="M49.9,126.1L34,141.1c-0.1,0.1-0.2,0.2-0.3,0.3l2.7,2.8l0.3-0.3c3-2.8,8.2-6.3,10.6-5.7l1.1-3.8
		c-0.5-0.1-1-0.2-1.4-0.2l5.6-5.3L49.9,126.1z"/>
	<linearGradient id="SVGID_6_" gradientUnits="userSpaceOnUse" x1="2.7799" y1="120.7199" x2="125.2639" y2="-6.0769">
		<stop  offset="0" style="stop-color:#F5B156"/>
		<stop  offset="0.3925" style="stop-color:#00B9B5"/>
		<stop  offset="1" style="stop-color:#6190CB"/>
	</linearGradient>
	<circle class="st10" cx="27.4" cy="95.3" r="1.1"/>
</g>
<g>
	<path class="st1" d="M52,206.3c-6.7,5.6-15.6,5.7-18.1,5.7c-3.3,0-13.9-0.2-21.6-8.2c-0.9-1-2-2.4-2.7-3.6l8.7-6
		c2.4,3.6,7,8.3,17.2,8.3c0.5,0,2.4,0,4.1-0.4c1.2-0.2,6.6-1.7,6.6-6.9c0-0.5-0.1-2-1-3.3c-1.9-2.5-6.9-3.2-9.6-3.8l-6.6-1.5
		c-2.8-0.6-5.9-1.3-8.4-2.6c-2.6-1.3-7.9-4.9-7.9-12.9c0-1.3,0.2-4.9,2.1-8.2c2.5-4.2,8.5-9.1,19.8-9.1c4.9,0,14.7,0.8,22.3,11.2
		l-8.5,6.3c-1.7-2.7-5.6-8.2-14.3-8.2c-0.5,0-7.5-0.1-9.8,4.2c-0.5,0.9-0.6,1.6-0.6,2.5c0,0.9,0.2,1.7,0.7,2.5
		c1.3,2.3,4.4,3,9.5,4.1l5.7,1.3c5.3,1.2,11.1,2.7,14.7,7.1c1.6,1.7,3.2,4.2,3.2,9.3C57.4,199.1,55.8,203,52,206.3z"/>
	<path class="st1" d="M76.7,164.5v13.8h23.1v8.9H76.7v23.4H66.5v-55.3h36.6v9.2H76.7z"/>
	<path class="st1" d="M110.6,210.6v-55.3H121v45.9H143v9.4H110.6z"/>
</g>
</svg>
