<?xml version="1.0" encoding="utf-8"?>
<!-- Generator: Adobe Illustrator 21.1.0, SVG Export Plug-In . SVG Version: 6.00 Build 0)  -->
<svg version="1.1" id="Layer_1" xmlns="http://www.w3.org/2000/svg" xmlns:xlink="http://www.w3.org/1999/xlink" x="0px" y="0px"
	 viewBox="0 0 521 89" style="enable-background:new 0 0 521 89;" xml:space="preserve">
<style type="text/css">
	.st0{enable-background:new    ;}
	.st1{fill:#FFFFFF;}
</style>
<path class="st1" d="M25.3,50.1c-2.6-1.4-5.5-2.1-8.5-2.1L3.4,2.8c3,0.6,8.7,2.5,10.4,7.8l5.1,19.2c-1.5,1.1-1.9,3.2-0.8,4.8
	c1.1,1.5,3.2,1.9,4.8,0.8c1.5-1.1,1.9-3.2,0.8-4.8c-0.6-0.8-1.4-1.3-2.4-1.4L16.7,12c1.9,0.5,3.4,1.9,4.2,3.6
	c1.4,3.6,5.3,20.5,6.2,24.3c-1.6,1.1-2,3.2-0.9,4.8s3.2,2,4.8,0.9c1.6-1.1,2-3.2,0.9-4.8c-0.5-0.8-1.4-1.3-2.4-1.5
	c-0.9-3.9-4.8-20.8-6.3-24.6c-1.5-3.9-5.6-5.2-7.3-5.5C12.8,1,2.2,0.2,1.8,0.1L0,0l14.4,48.2c-3.1,0.6-5.8,2.6-7.2,5.4
	c-2.4,4.5-1,6.9,0,7.9c0,1.6,0.6,3,1.8,4.1l1.4,1.2l0.6-1.8c0.5-1.6,2.2-2.6,3.8-2.1c1.1,0.2,2,0.8,2.6,1.8c1,1.4,2.3,4.9,0.6,12.4
	L10.4,85l1.8,1.7c1.8-1.8,4.9-4.1,6.5-3.8l0.5-2.4c-0.3-0.1-0.7-0.1-1-0.1l2-2.1l0.1-0.3c1.5-6.4,1.2-11.6-0.9-14.6
	c-1-1.5-2.5-2.5-4.2-2.8c-2-0.5-4.1,0.3-5.5,1.8c-0.1-0.3-0.1-0.7,0-1l0.3-0.9L9.1,60c0,0-1.8-1.1,0.3-5.2c1.2-2.6,3.8-4.3,6.7-4.3
	h0.1l0.1,0c3-0.2,5.9,0.5,8.5,2.1l0.7,0.5l56.2-40.6c-1,3.5-3.3,9.3-7.9,12.8L54,40c-1.6-1-3.7-0.5-4.7,1c-1,1.6-0.5,3.7,1,4.7
	c1.6,1,3.7,0.5,4.7-1c0.5-0.8,0.7-1.8,0.4-2.7l18.4-13.8c0.4,1.8,0.2,5.3-4.2,9.8l-18.9,15c-1.6-1-3.7-0.5-4.7,1.1
	c-1,1.6-0.5,3.7,1.1,4.7c1.6,1,3.7,0.5,4.7-1.1c0.5-0.8,0.6-1.8,0.4-2.7l19-15.1l0.1-0.1c6.1-6.2,5.3-11.1,4.6-13.2
	c7.1-6,8.8-16.4,8.8-16.9l0.4-2.9L25.3,50.1z M30.8,42.7c0,1-0.8,1.8-1.8,1.8c-1,0-1.8-0.8-1.8-1.8s0.8-1.8,1.8-1.8c0,0,0,0,0,0
	C30,40.9,30.8,41.7,30.8,42.7L30.8,42.7L30.8,42.7z M22.6,32.5c0,1-0.8,1.8-1.8,1.8c-1,0-1.8-0.8-1.8-1.8s0.8-1.8,1.8-1.8
	c0,0,0,0,0,0C21.8,30.7,22.6,31.5,22.6,32.5C22.6,32.5,22.6,32.5,22.6,32.5L22.6,32.5z M49,57.8c-1,0-1.8-0.8-1.8-1.8
	c0-1,0.8-1.8,1.8-1.8c1,0,1.8,0.8,1.8,1.8C50.8,57,50,57.8,49,57.8L49,57.8z M52.2,44.7c-1,0-1.8-0.8-1.8-1.8c0-1,0.8-1.8,1.8-1.8
	c1,0,1.8,0.8,1.8,1.8C54,43.9,53.2,44.7,52.2,44.7L52.2,44.7z M35.2,59.4l27.6,26.6c-1.7,0.7-5.1,1.1-9.5-2.4L38.5,69l-1.7,1.7
	l14,13.9c-1,1-2.2,1.6-3.6,1.9c-1.2,0.1-2.3-0.3-3.2-1.1l-4.2-4.2L38,82.9l2.8,2.8c-1.3,0.2-2.6-0.1-3.7-0.8l-2-7.5l-2.4,0.6
	l2.2,8.2l0.3,0.2c2.8,2.3,6.3,1.6,7.8,1.1c1.3,0.9,2.9,1.4,4.5,1.2c2-0.3,3.8-1.3,5.2-2.7c7.5,5.4,13,1.1,13,1.1l1.1-0.9L36.9,57.7
	L35.2,59.4z M26.3,77.7L16.4,87l-0.2,0.2l1.7,1.8l0.2-0.2c1.9-1.7,5.2-4,6.7-3.5l0.7-2.4c-0.3-0.1-0.6-0.1-0.9-0.1l3.5-3.3
	L26.3,77.7z M11.5,58.4c0,0.4,0.3,0.7,0.7,0.7c0.4,0,0.7-0.3,0.7-0.7s-0.3-0.7-0.7-0.7S11.5,58,11.5,58.4L11.5,58.4z M126.9,82
	c-7.1,6-16.7,6.1-19.4,6.1c-3.5,0-14.9-0.2-23.1-8.8c-1.1-1.2-2-2.5-2.9-3.8l9.3-6.4c2.6,3.8,7.5,8.9,18.4,8.9
	c1.5,0,2.9-0.1,4.4-0.4c1.3-0.3,7.1-1.8,7.1-7.4c0-1.3-0.4-2.5-1.1-3.5c-2-2.7-7.4-3.4-10.3-4.1l-7.1-1.6c-3.1-0.5-6.1-1.5-9-2.8
	c-5.3-2.5-8.6-7.9-8.5-13.7c0-3,0.8-6,2.3-8.7c2.7-4.5,9.2-9.7,21.2-9.7c9.5-0.3,18.5,4.2,24,12l-9.2,6.8c-3.1-5.5-9-8.9-15.4-8.8
	c-0.6,0-8.1-0.1-10.5,4.5c-0.5,0.8-0.7,1.7-0.7,2.7c0,0.9,0.3,1.9,0.8,2.7c1.4,2.4,4.7,3.2,10.2,4.4l6.1,1.3
	c5.6,1.3,11.9,2.9,15.8,7.5c1.7,1.8,3.4,4.5,3.4,10C132.9,74,130.8,78.8,126.9,82L126.9,82z M153.5,37.4v14.7h24.8v9.5h-24.8v25h-11
	V27.5h39.3v9.9L153.5,37.4L153.5,37.4z M189.8,86.6V27.5H201v49h23.5v10L189.8,86.6L189.8,86.6z"/>
</svg>
